<?xml version="1.0" encoding="UTF-8"?>
<svg version="1.1" xmlns="http://www.w3.org/2000/svg" width="512" height="512">
<path d="M0 0 C6.06220454 5.14474446 8.21790207 10.20737426 11.0390625 17.73046875 C11.0390625 51.72046875 11.0390625 85.71046875 11.0390625 120.73046875 C137.0990625 120.73046875 263.1590625 120.73046875 393.0390625 120.73046875 C393.0390625 86.74046875 393.0390625 52.75046875 393.0390625 17.73046875 C397.98768659 5.35890853 401.56644606 0.39079373 413.171875 -5.140625 C422.10695206 -8.65865943 431.27812662 -8.02017423 440.0390625 -4.26953125 C447.99538058 0.26684194 454.55521315 7.81306675 457.0390625 16.73046875 C457.4975885 21.36723352 457.47967944 25.98872797 457.47485352 30.64526367 C457.48384056 32.05538732 457.49405097 33.46550362 457.50538635 34.87561035 C457.53179998 38.69203536 457.53891629 42.50825833 457.54083371 46.32476592 C457.54297189 48.71444446 457.54938752 51.10407228 457.55732536 53.49373817 C457.58505415 61.84587465 457.59733447 70.19786785 457.5949707 78.55004883 C457.59317081 86.3101747 457.62478485 94.06967329 457.67220169 101.82964057 C457.71156401 108.51189691 457.72751666 115.19394942 457.72560447 121.87632066 C457.72484324 125.85852378 457.73318718 129.84016944 457.76513863 133.82225609 C457.7944125 137.57285798 457.79426639 141.32237853 457.77258873 145.07302094 C457.76800923 147.08650012 457.79283426 149.09998096 457.81890869 151.11329651 C457.72073074 160.68209085 455.52949416 168.68910191 449.04386234 175.97046185 C447.0987756 177.85422698 445.34663956 179.29895083 443.0390625 180.73046875 C442.52743586 181.06150962 442.01580923 181.39255049 441.48867875 181.73362291 C433.41245378 186.14450328 424.34580743 185.29172329 415.42228699 185.25186157 C413.50915837 185.25790598 411.59603459 185.26568564 409.68291932 185.27504671 C404.436007 185.29560689 399.18936799 185.29124315 393.94243324 185.28268552 C388.27970234 185.27775105 382.61703724 185.29577934 376.95433044 185.3107605 C365.8642702 185.33625901 354.7743068 185.33984131 343.68422218 185.33515997 C334.66946329 185.33159374 325.65473379 185.33509265 316.63997841 185.34360886 C315.35689488 185.34479923 314.07381135 185.34598961 312.7518465 185.34721606 C310.14524107 185.34963957 307.53863565 185.35206784 304.93203024 185.35450082 C287.43047031 185.37007498 269.9289283 185.37791373 252.4273634 185.36986732 C251.743213 185.36955457 251.0590626 185.36924182 250.35418038 185.36891959 C246.88679447 185.36730807 243.41940861 185.36561653 239.95202275 185.36389299 C239.26341418 185.36355081 238.5748056 185.36320864 237.86533009 185.36285609 C236.47279677 185.36216278 235.08026346 185.36146572 233.68773014 185.36076492 C212.02246859 185.35005179 190.35736986 185.36590929 168.69213867 185.40283203 C144.33919205 185.44428688 119.98637083 185.46565243 95.63338262 185.45768106 C82.74341142 185.45385612 69.85358855 185.45884088 56.96364403 185.48711014 C45.98990961 185.51093343 35.01641482 185.51375259 24.04267713 185.4895298 C18.44516062 185.47774901 12.84808245 185.47556161 7.25059509 185.49953461 C2.1225236 185.5212417 -3.0047433 185.5150598 -8.13277706 185.48701124 C-9.9839875 185.48171426 -11.83526089 185.48646037 -13.68640957 185.50248297 C-25.31431444 185.59611144 -35.05698708 184.92763805 -44.18360263 176.73534548 C-52.49218435 168.23957839 -53.55384421 159.06629503 -53.51025391 147.58862305 C-53.51896386 146.17820158 -53.52933537 144.76778956 -53.54122925 143.35739136 C-53.5678669 139.54928088 -53.56918259 135.7415691 -53.56410265 131.9333837 C-53.56195304 128.74286973 -53.57175605 125.55243475 -53.58131349 122.36193782 C-53.60345553 114.8279009 -53.60440661 107.29406343 -53.59228516 99.76000977 C-53.58021424 92.01458926 -53.60481535 84.26989617 -53.64742529 76.52459973 C-53.68277646 69.85077847 -53.69464127 63.17718749 -53.68814981 56.50327617 C-53.68454189 52.52783294 -53.68961515 48.55290844 -53.71757889 44.57755089 C-53.7429222 40.83509727 -53.73867689 37.09376821 -53.71275711 33.3513298 C-53.70584899 31.34266412 -53.72824656 29.33396258 -53.75189209 27.32542419 C-53.64015673 17.58014375 -51.36037215 9.56343895 -44.68552589 2.23083019 C-31.81282597 -10.05108964 -14.27025991 -10.2110517 0 0 Z " fill="#808080" transform="translate(53.9609375,326.26953125)"/>
<path d="M0 0 C6.1699675 4.82523099 9.97172495 11.17061872 12.015625 18.6796875 C12.30898899 22.04624228 12.30102362 25.40055323 12.2940979 28.77828979 C12.2998903 29.79205378 12.3056827 30.80581776 12.31165063 31.85030186 C12.32864746 35.24512286 12.33152691 38.63980787 12.33447266 42.03466797 C12.34377103 44.46902296 12.35393957 46.90337476 12.36491394 49.33772278 C12.38657796 54.57763063 12.40219039 59.81751937 12.41228104 65.05746078 C12.42688081 72.63348587 12.45242126 80.20944316 12.48061232 87.78542842 C12.52605674 100.07763744 12.56268125 112.36985623 12.59375 124.66210938 C12.62394517 136.60125443 12.65829989 148.54037559 12.69824219 160.47949219 C12.70193451 161.58380954 12.70193451 161.58380954 12.70570143 162.71043633 C12.71807622 166.40387835 12.73053271 170.0973201 12.74302983 173.79076171 C12.84656243 204.42037092 12.93563018 235.05000724 13.015625 265.6796875 C13.92049652 264.76371292 14.82536804 263.84773834 15.75765991 262.90400696 C24.30610282 254.25400246 32.86787203 245.6173855 41.44270897 236.99354267 C45.85021148 232.5599984 50.25296297 228.1219461 54.64501953 223.6730957 C58.88742944 219.37617546 63.14210114 215.09175008 67.40538406 210.81554222 C69.02599131 209.18572943 70.64220731 207.55153749 72.25382614 205.91283607 C74.52004883 203.6100733 76.801694 201.323684 79.08740234 199.0402832 C79.74340424 198.36630493 80.39940613 197.69232666 81.07528687 196.9979248 C89.13063842 189.02957441 97.82153865 185.37718981 109.11157227 185.36499023 C118.10391546 185.54714366 124.75584448 188.55354103 131.26171875 194.69140625 C137.61344241 201.89191258 140.50781242 210.52665768 140.26171875 220.06640625 C138.87411977 234.80138592 128.37987344 243.61807714 118.46777344 253.53393555 C117.1921005 254.81724026 115.91682743 256.10094257 114.641922 257.38500977 C111.19418573 260.85459088 107.73999159 264.31766997 104.28386593 267.77889228 C102.121536 269.94487611 99.96050744 272.11214991 97.79990387 274.27985573 C90.25300117 281.85121314 82.70043026 289.41686819 75.14306641 296.9777832 C68.11253993 304.01194709 61.09526408 311.05914369 54.08387542 318.11237878 C48.05007724 324.18091553 42.00664878 330.23974985 35.95580506 336.29129058 C32.34795362 339.89993326 28.74415292 343.51240412 25.15019989 347.13489342 C21.76964455 350.54169188 18.37722444 353.93621932 14.97553062 357.32190704 C13.73367793 358.56195057 12.4960364 359.80622899 11.26310921 361.05514717 C2.2954184 370.13196006 -6.21288492 377.65484288 -19.546875 377.9921875 C-37.51054331 377.73026281 -47.87432959 363.93984421 -59.69848633 352.15844727 C-60.94289574 350.92195957 -62.18747881 349.68564664 -63.43222046 348.44949341 C-67.48061995 344.42704187 -71.52381621 340.39938255 -75.56640625 336.37109375 C-76.96612271 334.97674535 -78.36584388 333.58240169 -79.76556969 332.18806267 C-85.58684781 326.38835967 -91.4067066 320.58723858 -97.22285938 314.78239536 C-105.52582357 306.49569227 -113.83718677 298.21762137 -122.16040021 289.95125538 C-128.03353415 284.11686234 -133.89701397 278.27287751 -139.75345057 272.42172474 C-143.2433233 268.93549526 -146.73720726 265.45352734 -150.24149513 261.98178291 C-153.53496033 258.71847679 -156.81624806 255.44339416 -160.08878708 252.15910721 C-161.28689766 250.96077666 -162.48924816 249.76666691 -163.69625282 248.5772953 C-172.72063654 239.67756278 -179.97107113 231.26709116 -180.234375 217.9921875 C-180.0982489 208.83090064 -177.32600155 201.3362481 -170.984375 194.6796875 C-162.56370383 186.99124861 -155.01961294 185.05123984 -143.66796875 185.34375 C-127.02987063 186.86111632 -115.4551367 203.06990721 -104.3515625 214.21484375 C-102.86391825 215.70435685 -101.37605027 217.19364653 -99.88796997 218.682724 C-96.00277734 222.57170509 -92.1205992 226.4636815 -88.23907471 230.35632324 C-84.26539191 234.34029976 -80.28881911 238.32138941 -76.3125 242.30273438 C-68.53365237 250.09225446 -60.75799129 257.88494699 -52.984375 265.6796875 C-52.98290844 264.41593355 -52.98144188 263.1521796 -52.97993088 261.85013008 C-52.9442052 231.83045757 -52.8879299 201.81089996 -52.80645405 171.79132003 C-52.79643696 168.09395334 -52.78659277 164.3965862 -52.77685547 160.69921875 C-52.77394341 159.59513063 -52.77394341 159.59513063 -52.77097252 158.46873771 C-52.73997738 146.56092286 -52.72297882 134.65312726 -52.71118078 122.74527968 C-52.69875631 110.52070241 -52.67122574 98.29622597 -52.62976193 86.07171237 C-52.6046635 78.53252603 -52.59125504 70.99350699 -52.59294543 63.45427828 C-52.59297879 57.6667257 -52.57196348 51.87939493 -52.54320717 46.09192085 C-52.53470181 43.72245167 -52.53296252 41.35294682 -52.53857231 38.98346901 C-52.5452238 35.74171182 -52.52726267 32.50096353 -52.50335693 29.25930786 C-52.51111735 28.32737205 -52.51887777 27.39543623 -52.52687335 26.43525994 C-52.41359715 17.72442352 -49.83618814 9.7491139 -43.828125 3.28125 C-31.53311603 -7.39873661 -13.71778073 -9.12718482 0 0 Z " fill="#808080" transform="translate(275.984375,6.3203125)"/>
</svg>
