<?xml version="1.0" encoding="UTF-8"?>
<svg version="1.1" xmlns="http://www.w3.org/2000/svg" width="1080" height="1080">
<path d="M0 0 C4.30602863 0.4992497 6.99492176 3.25832563 10.125 6 C13.82486697 9.34017775 13.82486697 9.34017775 18 12 C18 12.66 18 13.32 18 14 C18.52335937 14.21527344 19.04671875 14.43054688 19.5859375 14.65234375 C22.95635012 16.53388478 25.73290234 19.03377448 28.625 21.5625 C29.24455566 22.0982666 29.86411133 22.6340332 30.50244141 23.18603516 C34.9747651 27.06621255 39.36021489 31.03700895 43.734375 35.02734375 C46.558279 37.48608775 49.52658849 39.67555842 52.6015625 41.80859375 C53.06304687 42.20175781 53.52453125 42.59492188 54 43 C54 43.66 54 44.32 54 45 C54.54527344 45.2371875 55.09054688 45.474375 55.65234375 45.71875 C58.60315433 47.32917574 60.98704217 49.34152106 63.5625 51.5 C66.32911711 53.81239639 68.99876548 55.99917699 72 58 C72 58.66 72 59.32 72 60 C72.59006836 60.27239502 73.18013672 60.54479004 73.78808594 60.82543945 C75.94780407 61.97228315 77.56017917 63.18271696 79.390625 64.79296875 C80.01372559 65.33743652 80.63682617 65.8819043 81.27880859 66.44287109 C81.92930176 67.01859863 82.57979492 67.59432617 83.25 68.1875 C83.92240723 68.77611816 84.59481445 69.36473633 85.28759766 69.97119141 C88.01520261 72.36073445 90.73191034 74.76231667 93.4453125 77.16796875 C97.59023702 80.83463275 101.85842193 84.23163916 106.3125 87.51953125 C106.869375 88.00808594 107.42625 88.49664062 108 89 C108 89.66 108 90.32 108 91 C108.7425 91.24878906 109.485 91.49757813 110.25 91.75390625 C113.24459938 93.1108341 114.78290956 94.53714201 117 96.9375 C119.83924909 99.89926828 122.42251289 101.96953434 126 104 C127.66957787 105.66375037 129.33568904 107.33098095 131 109 C133.13116384 110.91704593 135.31350288 112.77151708 137.5 114.625 C138.10658447 115.1420752 138.71316895 115.65915039 139.33813477 116.19189453 C141.22314973 117.79729528 143.11102719 119.39925881 145 121 C145.59538574 121.50466797 146.19077148 122.00933594 146.80419922 122.52929688 C149.58914142 124.88870797 152.37602895 127.2458056 155.1640625 129.6015625 C163.2652841 136.45300887 163.2652841 136.45300887 166.94921875 139.73828125 C170.09839413 142.53954773 173.21911692 145.22496919 176.6875 147.625 C179.81210389 149.79251801 182.33843184 152.27351554 185 155 C194.37979938 163.547539 204.19142722 171.73462081 214.26953125 179.44140625 C214.84058594 179.95574219 215.41164063 180.47007812 216 181 C216 181.66 216 182.32 216 183 C216.71285156 183.23074219 217.42570313 183.46148437 218.16015625 183.69921875 C221.55999227 185.25650265 223.72425041 187.24549649 226.4375 189.8125 C230.72829407 193.84557387 230.72829407 193.84557387 235.1875 197.6875 C237.35144879 199.46674678 239.46219706 201.27307313 241.5625 203.125 C245.30447994 206.40922317 249.08223493 209.64971402 252.875 212.875 C253.73266968 213.60807373 253.73266968 213.60807373 254.60766602 214.35595703 C257.61999627 216.94555399 257.61999627 216.94555399 261 219 C261 219.66 261 220.32 261 221 C261.5887793 221.27328125 262.17755859 221.5465625 262.78417969 221.828125 C266.34894415 223.71341251 269.20723534 226.37778005 272.25 229 C272.8996875 229.5465625 273.549375 230.093125 274.21875 230.65625 C274.83234375 231.1821875 275.4459375 231.708125 276.078125 232.25 C276.63918945 232.72953125 277.20025391 233.2090625 277.77832031 233.703125 C279 235 279 235 279 237 C279.88751953 237.14695312 279.88751953 237.14695312 280.79296875 237.296875 C283.43831973 238.13964168 284.45480656 239.21052749 286.3125 241.25 C288.70732179 243.77441172 291.057089 245.85918485 293.9375 247.8125 C294.948125 248.534375 295.95875 249.25625 297 250 C297 250.66 297 251.32 297 252 C297.58007812 252.26039063 298.16015625 252.52078125 298.7578125 252.7890625 C301.1474841 254.07965169 302.8790698 255.53938548 304.875 257.375 C307.26528296 259.52137654 309.50162805 261.3344187 312.1875 263.125 C315.21670952 265.14447301 317.42539868 267.42539868 320 270 C322.23610177 271.99950822 324.52254935 273.93758817 326.8125 275.875 C328.06281848 276.93842775 329.31282068 278.00222748 330.5625 279.06640625 C331.15804688 279.57316895 331.75359375 280.07993164 332.3671875 280.60205078 C334.36932589 282.31620216 336.34280846 284.06122184 338.3125 285.8125 C341.75732696 288.84899618 345.35988792 291.64961421 349.01953125 294.421875 C350.82255765 295.85860609 352.39172799 297.35333423 354 299 C358.21668085 302.86834635 362.48168282 306.50900156 367.26171875 309.6640625 C369.72680631 311.55857923 371.80381955 313.80063668 374 316 C376.11089015 317.89560639 378.27231254 319.7293609 380.4375 321.5625 C381.67584589 322.61711161 382.91412513 323.67180148 384.15234375 324.7265625 C384.7851123 325.26442383 385.41788086 325.80228516 386.06982422 326.35644531 C389.79215679 329.5260308 393.49694558 332.71612959 397.20483398 335.90258789 C399.83546664 338.15937524 402.47596279 340.40142677 405.14453125 342.61328125 C406.8250557 344.01793301 408.48780364 345.44526788 410.10546875 346.921875 C427.54970649 362.23876668 447.6492844 365.13756025 470 364 C484.78338397 362.76058498 499.18639386 354.97160023 510 345 C510.6290625 344.45214844 511.258125 343.90429688 511.90625 343.33984375 C512.4321875 342.87707031 512.958125 342.41429687 513.5 341.9375 C532.69401535 325.12876034 532.69401535 325.12876034 541.6328125 318 C544.09677773 315.97539787 544.09677773 315.97539787 546.5625 313.43359375 C548.59621982 311.4031331 550.54843439 309.72778036 552.875 308.0625 C556.75264732 305.21598736 560.38791759 302.17352936 564 299 C564.61488281 298.46632813 565.22976563 297.93265625 565.86328125 297.3828125 C569.55359148 294.173204 573.19489811 290.91633083 576.8125 287.625 C584.25213196 280.91563866 592.04143884 274.6508734 600.02734375 268.60546875 C602.16971048 266.86187919 604.06088531 264.96572999 606 263 C618.13377193 252 618.13377193 252 621 252 C621.25136719 251.40058594 621.50273438 250.80117188 621.76171875 250.18359375 C623.16650809 247.70637847 624.48305348 246.67039712 626.8125 245.0625 C629.38573433 243.23046904 631.66222469 241.43916824 633.8125 239.125 C636 237 636 237 639 237 C639.19722656 236.45730469 639.39445313 235.91460938 639.59765625 235.35546875 C641.61722711 231.96326477 644.41511563 229.80638 647.4375 227.3125 C648.02337891 226.81427734 648.60925781 226.31605469 649.21289062 225.80273438 C651.78366525 223.65215446 653.79271544 222.06909485 657 221 C657 220.34 657 219.68 657 219 C658.546875 217.66015625 658.546875 217.66015625 660.75 216.0625 C665.37037936 212.58990476 669.57185773 208.8038311 673.74902344 204.82055664 C675.91869946 202.78020147 677.98224902 201.01056347 680.546875 199.484375 C683.51359335 197.68922696 685.58347508 195.48253016 688 193 C690.02144628 191.17917048 692.09870689 189.43031254 694.1875 187.6875 C694.72052734 187.23310547 695.25355469 186.77871094 695.80273438 186.31054688 C699.76045583 183 699.76045583 183 702 183 C702.33 182.01 702.66 181.02 703 180 C705.01171875 178.16015625 705.01171875 178.16015625 707.6875 176.0625 C712.25245736 172.42359381 716.71285037 168.69750751 721.125 164.875 C725.70888729 160.9136466 730.36943131 157.11695498 735.1875 153.44140625 C737.65540988 151.47877965 739.80035961 149.25604143 742 147 C746.13852989 143.1758964 750.15233879 139.88239315 755 137 C756.16165884 135.87153142 757.31917215 134.73799534 758.44140625 133.5703125 C767.78594697 124.15551207 778.39679837 116.00614033 788.80859375 107.82421875 C791.01025652 105.99146204 792.98945215 104.03858338 795 102 C807.13377193 91 807.13377193 91 810 91 C810.2475 90.40574219 810.495 89.81148438 810.75 89.19921875 C812.1986488 86.65050227 813.63241853 85.52476874 816 83.8125 C819.45143088 81.22668357 822.69354489 78.53709869 825.875 75.625 C839.57450818 63.14560427 839.57450818 63.14560427 844.2578125 60.93359375 C846.36037557 60.06358224 846.36037557 60.06358224 847 57 C848.6015625 55.60546875 848.6015625 55.60546875 850.625 54.1875 C854.12805628 51.67361609 857.36218382 48.99708909 860.5546875 46.1015625 C862 45 862 45 864 45 C864.39058594 44.08927734 864.39058594 44.08927734 864.7890625 43.16015625 C866.11092447 40.80212505 867.15497654 39.93156642 869.375 38.4375 C873.12732916 35.75240939 876.50989507 32.77220499 879.875 29.625 C893.44775834 16.99318312 893.44775834 16.99318312 900 14 C900 13.34 900 12.68 900 12 C901.7578125 10.44921875 901.7578125 10.44921875 904.125 8.6875 C906.96054292 6.55638441 909.71746367 4.41133262 912.375 2.0625 C915 0 915 0 918 0 C918.81690177 2.22763988 919.62861872 4.4569486 920.4375 6.6875 C920.78264648 7.62625977 920.78264648 7.62625977 921.13476562 8.58398438 C923.36401189 14.75479651 924.14785901 20.1285145 924.13422108 26.66641903 C924.13657331 27.43451555 924.13892554 28.20261208 924.14134905 28.99398425 C924.14802475 31.57689053 924.14758125 34.15974634 924.14717102 36.74266052 C924.15047054 38.60965824 924.1541963 40.47665525 924.1583125 42.34365135 C924.1683307 47.4816416 924.17204901 52.61962016 924.17470181 57.75761878 C924.17860542 63.29636944 924.18818377 68.83511084 924.19691467 74.37385559 C924.21667808 87.75423163 924.22674541 101.13460843 924.23564246 114.51499543 C924.24002581 120.81662345 924.24539252 127.11825064 924.25063133 133.41987801 C924.26764395 154.36926179 924.28216264 175.3186454 924.28938007 196.26803493 C924.28985483 197.62267941 924.29033072 198.97732389 924.29080774 200.33196837 C924.2911623 201.33962364 924.2911623 201.33962364 924.29152403 202.36763558 C924.2927252 205.77105068 924.29394066 209.17446577 924.29516602 212.57788086 C924.29540617 213.25329438 924.29564632 213.92870791 924.29589374 214.62458851 C924.30378312 236.51316381 924.32720735 258.40168485 924.35972196 280.29023647 C924.39404991 303.441875 924.41373288 326.59348311 924.41702431 349.7451511 C924.41918876 362.36135407 924.42792792 374.97747731 924.45348549 387.59365654 C924.47520291 398.33900821 924.48323775 409.08426079 924.47351871 419.82963192 C924.468977 425.30982463 924.47085294 430.78981295 924.49028015 436.26997757 C924.50793361 441.2932917 924.50689623 446.31625265 924.49138286 451.33957065 C924.48901011 453.15056436 924.4933129 454.96158266 924.50521151 456.77253883 C924.62495293 476.21130262 920.05982668 494.54557777 906.08984375 508.97265625 C891.1370165 522.49857355 875.85042322 527.32230006 855.96835613 527.25447559 C854.55877176 527.25686876 853.14918865 527.26013608 851.73960808 527.26419219 C847.87234924 527.2727905 844.00518778 527.26899479 840.1379275 527.26313647 C835.92820449 527.25895967 831.71849903 527.2663718 827.5087803 527.27228898 C820.13261687 527.28104905 812.75648121 527.28236377 805.38031387 527.27878571 C794.41155307 527.27347897 783.44281915 527.27957372 772.47406127 527.28786864 C751.74430461 527.303114 731.01456015 527.30481316 710.28479906 527.30234561 C694.27780412 527.30051338 678.27081318 527.3022711 662.26381874 527.30657005 C659.96458779 527.30717245 657.66535684 527.30777365 655.36612589 527.30837366 C651.9014575 527.3092809 648.43678912 527.31018957 644.97212074 527.31110601 C612.75667043 527.31953639 580.54122163 527.32387064 548.32577038 527.31969929 C547.11114724 527.31954291 545.89652411 527.31938654 544.64509421 527.31922542 C538.48882248 527.31841963 532.33255076 527.31757386 526.17627903 527.31671212 C524.95361159 527.31654103 523.73094415 527.31636994 522.47122618 527.31619367 C519.99869542 527.31584702 517.52616466 527.31549849 515.05363391 527.31514808 C476.57830872 527.3097905 438.10300646 527.31772202 399.62768555 527.33618164 C356.40563279 527.35689432 313.18359423 527.36762576 269.96153623 527.36360615 C265.35356701 527.3632108 260.74559778 527.36284926 256.13762856 527.36250877 C255.00302036 527.36241804 253.86841217 527.36232731 252.69942191 527.36223383 C235.56623754 527.36106752 218.4330675 527.3677187 201.2998867 527.37832069 C181.81618661 527.39036485 162.3325181 527.39194069 142.84881755 527.37953053 C131.94473027 527.37289612 121.04071848 527.37454642 110.13663722 527.38811904 C102.85203823 527.39635547 95.56749586 527.39367646 88.28290147 527.38214377 C84.13306891 527.3758794 79.98338377 527.37430707 75.83355965 527.38600711 C72.05294195 527.39656802 68.27259617 527.39314288 64.49199288 527.37890258 C62.50300325 527.37491809 60.51400038 527.38553744 58.52503911 527.39687964 C45.59597266 527.31903912 35.00652058 524.84485111 24 518 C22.96875 517.38125 21.9375 516.7625 20.875 516.125 C13.45417632 510.64004337 7.60568586 505.03974987 3 497 C2.55914062 496.24074219 2.11828125 495.48148438 1.6640625 494.69921875 C-5.48002611 481.47183044 -6.58713648 468.83003904 -6.50793457 454.1683197 C-6.51255142 452.29283766 -6.51890956 450.41735924 -6.52684355 448.5418883 C-6.54345217 443.4222028 -6.5353292 438.30281777 -6.52289867 433.18313158 C-6.51381575 427.64863317 -6.52783391 422.11418496 -6.53881836 416.57969666 C-6.55657326 405.75133075 -6.55277718 394.92307595 -6.5411678 384.09470575 C-6.53212229 375.29222401 -6.53091431 366.48977334 -6.53526306 357.68728828 C-6.53587599 356.43292454 -6.53648893 355.17856079 -6.53712043 353.88618602 C-6.53839937 351.337724 -6.53969623 348.78926198 -6.5410108 346.24079997 C-6.55208293 323.04345742 -6.54061488 299.84617284 -6.51964041 276.64884361 C-6.50065723 255.49299552 -6.50236009 234.33724374 -6.52148438 213.18139648 C-6.54292325 189.38582868 -6.55131135 165.59030747 -6.53903532 141.79472739 C-6.53776116 139.25611692 -6.53650368 136.71750644 -6.53526306 134.17889595 C-6.53433741 132.30547549 -6.53433741 132.30547549 -6.53339306 130.39420814 C-6.52994336 121.60463427 -6.53576026 112.81509462 -6.54518127 104.02552605 C-6.55641374 93.31072316 -6.55333479 82.59603744 -6.5320583 71.88124793 C-6.52156513 66.4173306 -6.51739664 60.95360846 -6.53065491 55.48969269 C-6.54262023 50.48280713 -6.53594809 45.47629672 -6.5147447 40.46944494 C-6.51029619 38.66345669 -6.51250526 36.85743641 -6.52224785 35.05146896 C-6.57418617 24.61918358 -5.75174281 15.88185144 -2 6 C-1.3269331 4.0021448 -0.6585099 2.00270046 0 0 Z " fill="#FFFFFF" transform="translate(81,294)"/>
<path d="M0 0 C1.41074987 -0.00239389 2.82149848 -0.00566166 4.23224455 -0.0097166 C8.09807742 -0.01830495 11.96381271 -0.01452337 15.829647 -0.00866088 C20.03956248 -0.00448047 24.24946048 -0.01189824 28.45937169 -0.01781338 C35.83432238 -0.02656956 43.2092453 -0.02788956 50.58419991 -0.02431011 C61.55114137 -0.01900133 72.51805596 -0.02510017 83.4849945 -0.03339304 C104.21134542 -0.04863482 124.93768413 -0.05033795 145.66403948 -0.04787002 C161.66815009 -0.04603754 177.6722567 -0.04779602 193.67636681 -0.05209446 C195.9754609 -0.05269686 198.27455499 -0.05329806 200.57364909 -0.05389806 C204.03813358 -0.05480531 207.50261807 -0.05571398 210.96710256 -0.05663041 C243.17862499 -0.06506018 275.39014592 -0.06939545 307.60166931 -0.06522369 C308.81602643 -0.06506732 310.03038355 -0.06491094 311.28153937 -0.06474983 C317.43642027 -0.06394404 323.59130117 -0.06309827 329.74618207 -0.06223653 C331.57975972 -0.06197989 331.57975972 -0.06197989 333.45037935 -0.06171808 C335.92233844 -0.06137142 338.39429753 -0.06102289 340.86625662 -0.06067249 C379.33503161 -0.05531458 417.80378368 -0.0632476 456.2725544 -0.08170605 C499.48985339 -0.10241868 542.70713818 -0.11315022 585.92444241 -0.10913056 C590.53183436 -0.10873521 595.13922632 -0.10837367 599.74661827 -0.10803318 C600.88107996 -0.10794245 602.01554165 -0.10785172 603.18438097 -0.10775824 C620.31492224 -0.10659195 637.44544918 -0.11324287 654.57598686 -0.1238451 C674.05600293 -0.13588912 693.53598742 -0.13746521 713.01600395 -0.12505493 C723.91787457 -0.11842055 734.81966969 -0.12007078 745.72153429 -0.13364345 C753.00462027 -0.14187987 760.28764963 -0.13920088 767.570731 -0.12766818 C771.71968178 -0.12140383 775.8684851 -0.11983143 780.01742743 -0.13153151 C783.79723267 -0.14209245 787.57676593 -0.13866726 791.35655675 -0.12442699 C793.34510831 -0.12044252 795.3336731 -0.13106182 797.3221963 -0.14240405 C806.22792771 -0.08877495 816.23037759 0.17785512 823.8453083 5.25447559 C823.8453083 5.91447559 823.8453083 6.57447559 823.8453083 7.25447559 C822.21098076 8.73216777 820.51054462 10.13716879 818.7828083 11.50447559 C817.77476143 12.31142872 816.76671455 13.11838184 815.7281208 13.94978809 C814.77679268 14.71033497 813.82546455 15.47088184 812.8453083 16.25447559 C809.15152347 19.34460688 805.53375348 22.52278708 801.9078083 25.69197559 C801.24265205 26.27334278 800.5774958 26.85470997 799.8921833 27.45369434 C798.5003395 28.67819815 797.11513414 29.91028017 795.7359333 31.14900684 C792.23523749 34.27462811 788.88526923 36.85233666 784.8453083 39.25447559 C783.1659893 40.90839313 781.50106226 42.57696721 779.8453083 44.25447559 C770.61228342 52.94099744 760.92285235 60.99951235 750.81796455 68.64900684 C748.67559782 70.3925964 746.784423 72.2887456 744.8453083 74.25447559 C732.71153637 85.25447559 732.71153637 85.25447559 729.8453083 85.25447559 C729.5978083 85.84873341 729.3503083 86.44299122 729.0953083 87.05525684 C727.6466595 89.60397332 726.21288978 90.72970685 723.8453083 92.44197559 C720.39387742 95.02779202 717.15176342 97.7173769 713.9703083 100.62947559 C700.27080013 113.10887132 700.27080013 113.10887132 695.5874958 115.32088184 C693.48493273 116.19089336 693.48493273 116.19089336 692.8453083 119.25447559 C691.41952705 120.47322559 691.41952705 120.47322559 689.5328083 121.75447559 C685.06290663 124.95763618 681.11836945 128.59472192 677.14682198 132.38338184 C674.95977538 134.44143666 672.87979484 136.23393154 670.29452705 137.77400684 C667.32343345 139.56993105 665.26730958 141.76779179 662.8453083 144.25447559 C660.50692284 146.38028056 658.11499974 148.44249062 655.7203083 150.50447559 C654.72462837 151.36480396 654.72462837 151.36480396 653.70883369 152.2425127 C649.09123951 156.21835655 644.4041699 160.09832389 639.66952705 163.93416309 C634.55553843 168.13569731 629.55525579 172.47107848 624.54281807 176.79280567 C622.75444868 178.33271183 620.9622937 179.86812936 619.16952705 181.40291309 C616.73757994 183.48652213 614.31500071 185.57975644 611.9078083 187.69197559 C611.24265205 188.27205372 610.5774958 188.85213184 609.8921833 189.44978809 C608.49514772 190.68152557 607.11014573 191.92701321 605.7359333 193.18416309 C602.16873473 196.41609864 599.3698638 198.52449849 594.8453083 200.25447559 C594.43151924 201.14586231 594.43151924 201.14586231 594.0093708 202.05525684 C592.50070327 204.90552469 590.6347732 206.27098822 588.0953083 208.25447559 C583.52482605 211.88803901 579.06847351 215.61623518 574.6578083 219.44197559 C570.36505582 223.15432894 566.02739686 226.69591119 561.43515205 230.03572559 C559.01670968 231.88966668 556.97075271 234.07589508 554.8453083 236.25447559 C543.82535265 246.25447559 543.82535265 246.25447559 540.8453083 246.25447559 C540.6081208 246.83842091 540.3709333 247.42236622 540.1265583 248.02400684 C538.56709817 250.73879872 536.84098493 252.05837156 534.3453083 253.94197559 C530.73469831 256.7392918 527.27732226 259.60819642 523.9078083 262.69197559 C509.66901599 275.64657303 509.66901599 275.64657303 504.8453083 277.25447559 C504.5771833 277.85260059 504.3090583 278.45072559 504.0328083 279.06697559 C502.63906173 281.63440349 500.99281938 282.47784865 498.58578682 284.02571583 C494.66262936 286.79542427 491.33012723 290.32776054 487.88046455 293.65291309 C487.28878487 294.21494434 486.69710518 294.77697559 486.0874958 295.35603809 C485.56010811 295.86473438 485.03272041 296.37343067 484.48935127 296.897542 C482.71047199 298.36576461 480.90921029 299.24105952 478.8453083 300.25447559 C477.69637517 301.36961658 476.55285076 302.49109047 475.44296455 303.64510059 C469.45074527 309.68127259 462.89440893 315.08722721 456.22421455 320.34822559 C453.3085917 322.68455392 450.50488428 325.1291598 447.70858955 327.60603809 C445.3737193 329.6716885 443.00344143 331.69378815 440.63046455 333.71541309 C439.35726683 334.81309341 438.09540513 335.92397979 436.84140205 337.04353809 C433.00003561 340.46942468 429.13394293 343.39538584 424.8453083 346.25447559 C423.6696833 347.46103809 423.6696833 347.46103809 422.4703083 348.69197559 C415.18958996 355.7993435 407.1594161 358.65285609 396.9703083 358.56697559 C396.26704414 358.56133595 395.56377998 358.5556963 394.83920479 358.54988575 C384.42946852 358.30715613 376.36690533 354.44143037 368.7828083 347.31697559 C368.1434333 346.63635059 367.5040583 345.95572559 366.8453083 345.25447559 C363.11045825 341.81709148 359.33456666 338.52037603 355.1578083 335.62947559 C352.03014698 333.45554059 349.51453659 330.98577896 346.8453083 328.25447559 C341.23753664 323.01854542 335.45955437 318.05878142 329.4390583 313.30525684 C326.57553416 311.04117525 323.73823829 308.74728633 320.9078083 306.44197559 C320.01190987 305.71365528 319.11601143 304.98533497 318.19296455 304.23494434 C316.30140368 302.63923492 314.57454068 301.01733193 312.8453083 299.25447559 C311.666183 298.20333849 310.47791458 297.1624067 309.2828083 296.12947559 C306.0484478 293.32398057 302.87821926 290.45815501 299.7203083 287.56697559 C296.98977621 285.08927055 294.33816947 282.78769916 291.2203083 280.81697559 C290.0446833 280.04353809 290.0446833 280.04353809 288.8453083 279.25447559 C288.8453083 278.59447559 288.8453083 277.93447559 288.8453083 277.25447559 C288.32452705 277.04178028 287.8037458 276.82908497 287.2671833 276.60994434 C283.83178246 274.68722806 281.04850703 272.15398399 278.0953083 269.56697559 C277.15606514 268.75341602 277.15606514 268.75341602 276.19784737 267.92342091 C272.37767333 264.61022694 268.58560684 261.26545713 264.7984333 257.91463184 C261.54136136 255.14612069 258.14368024 252.55398058 254.7515583 249.95369434 C254.1224958 249.39295216 253.4934333 248.83220997 252.8453083 248.25447559 C252.8453083 247.59447559 252.8453083 246.93447559 252.8453083 246.25447559 C252.1646833 246.06885059 251.4840583 245.88322559 250.7828083 245.69197559 C247.28625896 243.98089826 245.26665125 241.78116754 242.60702705 238.98885059 C240.26452127 236.68270299 237.59256522 235.04616489 234.8453083 233.25447559 C233.17725909 231.58919263 231.5107445 229.92237182 229.8453083 228.25447559 C228.13516214 226.81490555 226.40536635 225.39839191 224.6578083 224.00447559 C220.07636434 220.30124408 215.69439551 216.44093981 211.34921455 212.46541309 C207.92032861 209.43772285 204.31941989 206.65399134 200.6812458 203.88338184 C199.77245674 203.07707325 199.77245674 203.07707325 198.8453083 202.25447559 C198.8453083 201.59447559 198.8453083 200.93447559 198.8453083 200.25447559 C197.75862862 199.89095997 197.75862862 199.89095997 196.6499958 199.52010059 C193.48072783 198.08995738 191.49991727 196.38053002 188.9703083 194.00447559 C188.09890205 193.19752247 187.2274958 192.39056934 186.3296833 191.55916309 C185.50983955 190.79861622 184.6899958 190.03806934 183.8453083 189.25447559 C182.64408094 188.20462241 181.43669318 187.16172882 180.2203083 186.12947559 C177.86702252 184.13027216 175.5369646 182.10852896 173.2203083 180.06697559 C165.65779647 173.44063544 157.97012315 166.9589998 150.1578083 160.62947559 C146.55913293 157.70555185 143.08183004 154.69348324 139.6578083 151.56697559 C136.0856151 148.30713632 132.41424593 145.35926876 128.5093708 142.51228809 C126.41987834 140.93290646 124.66771294 139.13383038 122.8453083 137.25447559 C111.79749201 127.17460397 111.79749201 127.17460397 99.8453083 118.25447559 C99.8453083 117.59447559 99.8453083 116.93447559 99.8453083 116.25447559 C99.25523994 115.98208057 98.66517159 115.70968555 98.05722237 115.42903614 C95.89750423 114.28219244 94.28512914 113.07175863 92.4546833 111.46150684 C91.83158272 110.91703907 91.20848213 110.3725713 90.56649971 109.8116045 C89.91600655 109.23587696 89.26551338 108.66014942 88.5953083 108.06697559 C87.92290108 107.47835743 87.25049385 106.88973927 86.55771065 106.28328419 C83.8301057 103.89374114 81.11339797 101.49215892 78.3999958 99.08650684 C74.25507128 95.41984284 69.98688638 92.02283643 65.5328083 88.73494434 C64.9759333 88.24638966 64.4190583 87.75783497 63.8453083 87.25447559 C63.8453083 86.59447559 63.8453083 85.93447559 63.8453083 85.25447559 C63.1028083 85.00568653 62.3603083 84.75689747 61.5953083 84.50056934 C58.60070892 83.1436415 57.06239874 81.71733359 54.8453083 79.31697559 C52.00605921 76.35520731 49.42279541 74.28494125 45.8453083 72.25447559 C44.17572023 70.59073546 42.5096259 68.92348802 40.8453083 67.25447559 C38.67269281 65.29557129 36.44946875 63.39858385 34.2203083 61.50447559 C33.60929268 60.98296925 32.99827705 60.4614629 32.3687458 59.92415333 C26.92307858 55.29037269 21.39700758 50.76060484 15.8453083 46.25447559 C12.71704408 43.69673497 9.70320707 41.11237436 6.8453083 38.25447559 C3.10610143 34.82415972 -0.66492077 31.51791676 -4.8421917 28.62947559 C-7.96679558 26.46195758 -10.49312353 23.98096005 -13.1546917 21.25447559 C-18.57814873 16.27399408 -24.29922628 11.71384625 -30.1546917 7.25447559 C-29.1546917 4.25447559 -29.1546917 4.25447559 -27.39627493 3.13629405 C-18.69766908 -0.28565837 -9.19575531 -0.03143391 0 0 Z " fill="#FFFFFF" transform="translate(143.154691696167,258.7455244064331)"/>
</svg>
