<?xml version="1.0" encoding="UTF-8"?>
<svg version="1.1" xmlns="http://www.w3.org/2000/svg" width="512" height="512">
<path d="M0 0 C1.38947841 0.73013349 2.78810648 1.44282452 4.18896484 2.15087891 C15.38281847 8.00644374 25.14922021 15.96019715 34.25146484 24.63134766 C36.65900557 26.9841216 36.65900557 26.9841216 39.67724609 28.88134766 C39.67724609 29.54134766 39.67724609 30.20134766 39.67724609 30.88134766 C40.33724609 30.88134766 40.99724609 30.88134766 41.67724609 30.88134766 C43.13642573 32.4712888 44.51973964 34.13122338 45.86474609 35.81884766 C47.069375 37.32705078 47.069375 37.32705078 48.29833984 38.86572266 C49.08337891 39.86087891 49.86841797 40.85603516 50.67724609 41.88134766 C51.32822266 42.69087891 51.97919922 43.50041016 52.64990234 44.33447266 C62.67724609 56.94027623 62.67724609 56.94027623 62.67724609 60.88134766 C63.33724609 60.88134766 63.99724609 60.88134766 64.67724609 60.88134766 C67.01939449 65.5121436 69.33809586 70.15359464 71.63867188 74.80517578 C72.50361797 76.53425467 73.39744125 78.24885076 74.29833984 79.95947266 C91.15773493 113.40412632 93.52031636 161.25845388 82.02099609 196.79541016 C81.79541016 197.47764648 81.56982422 198.15988281 81.33740234 198.86279297 C80.70175165 200.8064172 80.1064483 202.75803907 79.52099609 204.71728516 C75.0230993 219.21388497 67.90926685 232.18743329 59.67724609 244.88134766 C58.98115234 245.99251953 58.28505859 247.10369141 57.56787109 248.24853516 C56.63201172 249.55177734 56.63201172 249.55177734 55.67724609 250.88134766 C55.01724609 250.88134766 54.35724609 250.88134766 53.67724609 250.88134766 C53.41476074 251.62755371 53.15227539 252.37375977 52.88183594 253.14257812 C51.66759996 255.90327922 50.46314081 257.52744667 48.40380859 259.70166016 C47.74936768 260.39694824 47.09492676 261.09223633 46.4206543 261.80859375 C45.72157959 262.53385254 45.02250488 263.25911133 44.30224609 264.00634766 C43.58705811 264.75609863 42.87187012 265.50584961 42.13500977 266.27832031 C26.84660179 282.17226045 26.84660179 282.17226045 18.67724609 286.88134766 C17.14767682 287.95231124 15.62705181 289.03614149 14.11474609 290.13134766 C5.5754622 296.11260818 -3.25704079 300.9961875 -12.76025391 305.25634766 C-13.52982422 305.60238037 -14.29939453 305.94841309 -15.09228516 306.30493164 C-21.76377667 309.22590375 -28.32276562 311.23269584 -35.63525391 309.25634766 C-38.25743902 307.11975238 -38.5046164 305.17935381 -39.32275391 301.88134766 C-39.57004351 298.02021007 -39.50762614 294.17421025 -39.44775391 290.30712891 C-39.43639404 288.62770454 -39.43639404 288.62770454 -39.42480469 286.91435242 C-39.39225323 282.14217942 -39.33617505 277.37035433 -39.28173828 272.59838867 C-39.24531643 269.10548523 -39.2212806 265.61263936 -39.19775391 262.11962891 C-39.18115723 261.05778885 -39.16456055 259.99594879 -39.14746094 258.90193176 C-39.08729413 249.6044639 -39.85640161 240.71841155 -44.26025391 232.38134766 C-44.76427734 231.40166016 -45.26830078 230.42197266 -45.78759766 229.41259766 C-47.13644273 227.18854777 -48.38642422 225.59225389 -50.32275391 223.88134766 C-49.99275391 223.22134766 -49.66275391 222.56134766 -49.32275391 221.88134766 C-47.01293945 221.2746582 -47.01293945 221.2746582 -43.95947266 220.76806641 C-42.84378906 220.57148438 -41.72810547 220.37490234 -40.57861328 220.17236328 C-38.24340371 219.77740994 -35.90748548 219.38661846 -33.57080078 219.00048828 C-15.68041978 215.82655303 0.70678774 207.49107352 11.97412109 192.90869141 C24.34918563 174.13674201 28.13209908 148.51526442 24.07177734 126.61572266 C22.13219599 118.08585106 19.51047634 111.14368928 14.02905273 104.28540039 C8.63808873 97.36932746 8.63808873 97.36932746 8.76318359 92.61572266 C9.33857346 90.43029693 9.97879978 88.2610795 10.67724609 86.11181641 C14.17201059 74.82208892 10.46134908 62.95561446 7.67724609 51.88134766 C-7.01530986 51.41212431 -21.30699671 58.55770433 -32.68212891 67.41259766 C-38.06280651 70.40540059 -43.58573277 68.71511507 -49.28662109 67.45776367 C-69.70149429 63.03578976 -90.95435066 63.37320336 -111.32275391 67.88134766 C-121.56776625 69.97658995 -121.56776625 69.97658995 -125.43212891 67.56494141 C-127.05734157 66.34603191 -128.67950236 65.12304729 -130.29931641 63.89697266 C-136.16786257 59.98460855 -142.81136999 57.53206141 -149.32275391 54.88134766 C-150.17611328 54.49849609 -151.02947266 54.11564453 -151.90869141 53.72119141 C-154.84670774 52.69906598 -157.53545437 52.46073004 -160.63525391 52.25634766 C-161.70388672 52.18158203 -162.77251953 52.10681641 -163.87353516 52.02978516 C-165.08589844 51.95630859 -165.08589844 51.95630859 -166.32275391 51.88134766 C-169.0023694 60.19134572 -169.62418583 68.01578314 -169.63525391 76.69384766 C-169.64041016 77.67168213 -169.64556641 78.6495166 -169.65087891 79.65698242 C-169.6085555 84.09753947 -169.42878992 87.91309446 -168.01806641 92.13916016 C-167.32275391 95.88134766 -167.32275391 95.88134766 -169.13916016 99.41650391 C-170.03550682 100.60684693 -170.95202593 101.78219392 -171.88525391 102.94384766 C-183.77489716 119.08551149 -185.34809848 138.9396691 -182.82666016 158.42431641 C-182.2070792 162.29973452 -181.3133669 166.08332941 -180.32275391 169.88134766 C-179.99404297 171.15365234 -179.66533203 172.42595703 -179.32666016 173.73681641 C-174.65502922 189.59449787 -165.10150927 202.20014225 -150.51855469 210.24926758 C-143.79683395 213.82911909 -137.47053877 216.81207834 -129.92822266 218.17041016 C-128.12514648 218.49912109 -128.12514648 218.49912109 -126.28564453 218.83447266 C-125.03976563 219.05619141 -123.79388672 219.27791016 -122.51025391 219.50634766 C-121.24503906 219.73580078 -119.97982422 219.96525391 -118.67626953 220.20166016 C-115.5592469 220.76625293 -112.44142957 221.32597141 -109.32275391 221.88134766 C-110.1094444 225.35398494 -111.39188863 227.92469697 -113.19775391 231.00634766 C-115.35290236 234.794338 -116.72177368 238.06643972 -117.63525391 242.31884766 C-118.37899541 245.03048896 -118.79374926 246.49134672 -121.0871582 248.18212891 C-127.10037929 250.79464467 -132.2947761 251.52461594 -138.82275391 251.44384766 C-139.70833984 251.46769531 -140.59392578 251.49154297 -141.50634766 251.51611328 C-150.33644816 251.49666372 -157.07789269 247.59574143 -163.58447266 241.80712891 C-165.77534815 239.37993426 -167.44007721 236.76246791 -169.19775391 234.00634766 C-174.19626241 226.2533624 -179.89232792 219.75007747 -189.03759766 217.20166016 C-192.95957936 216.65191229 -196.43330324 217.20223722 -200.32275391 217.88134766 C-197.96897917 221.36084074 -195.62583111 223.39536569 -192.07275391 225.50634766 C-183.34558431 231.13307542 -179.13546439 239.75745579 -175.44775391 249.15869141 C-172.23231949 256.94048928 -166.82459897 262.04496107 -159.32275391 265.88134766 C-150.81134375 269.11303085 -142.6470701 269.25104612 -133.63525391 269.06884766 C-132.34941406 269.0553125 -131.06357422 269.04177734 -129.73876953 269.02783203 C-126.59964536 268.99282321 -123.4614333 268.94371823 -120.32275391 268.88134766 C-120.2733353 274.09577042 -120.23702559 279.310057 -120.21289062 284.5246582 C-120.2028298 286.2987709 -120.18917969 288.072867 -120.171875 289.84692383 C-120.14763013 292.3962005 -120.13627173 294.94525803 -120.12744141 297.49462891 C-120.11711884 298.28847488 -120.10679626 299.08232086 -120.09616089 299.90022278 C-120.09537281 303.76357809 -120.12835021 305.58974212 -122.32275391 308.88134766 C-132.91201069 312.41109992 -142.63604673 306.84990194 -152.01025391 302.25634766 C-157.89117179 299.30349964 -163.54870272 296.04455494 -169.13525391 292.56884766 C-169.81096436 292.14845215 -170.4866748 291.72805664 -171.18286133 291.29492188 C-174.21528116 289.36636335 -176.79775564 287.41406894 -179.32275391 284.88134766 C-180.05494141 284.46626953 -180.78712891 284.05119141 -181.54150391 283.62353516 C-185.40944782 281.2006377 -188.52651807 278.1459307 -191.82275391 275.00634766 C-192.79921875 274.08789062 -192.79921875 274.08789062 -193.79541016 273.15087891 C-198.70526981 268.51874869 -203.55871087 263.84221855 -208.07275391 258.81884766 C-208.66572266 258.16787109 -209.25869141 257.51689453 -209.86962891 256.84619141 C-211.37037024 254.81696321 -211.9053147 253.34753453 -212.32275391 250.88134766 C-212.98275391 250.88134766 -213.64275391 250.88134766 -214.32275391 250.88134766 C-215.85151511 248.74288404 -217.25685497 246.6141261 -218.63525391 244.38134766 C-219.20276367 243.48029297 -219.20276367 243.48029297 -219.78173828 242.56103516 C-220.56353548 241.31756753 -221.34075108 240.07120961 -222.11376953 238.82226562 C-222.92970151 237.51235867 -223.75684276 236.20937678 -224.59423828 234.91308594 C-246.47088137 200.83729187 -251.98798098 154.48078895 -244.30712891 115.08447266 C-242.77380871 108.19407525 -240.62640503 101.54599872 -238.32275391 94.88134766 C-238.01595703 93.86041016 -237.70916016 92.83947266 -237.39306641 91.78759766 C-233.97365528 80.53077518 -228.6186336 69.534145 -221.74462891 59.97119141 C-220.17206224 57.72749897 -220.17206224 57.72749897 -218.48291016 54.56884766 C-216.32307515 50.74356703 -213.75653209 47.36369624 -211.01025391 43.94384766 C-210.52387451 43.333396 -210.03749512 42.72294434 -209.53637695 42.09399414 C-203.59796561 34.67763074 -197.62810582 27.98156498 -190.32275391 21.88134766 C-189.37916016 21.07310547 -188.43556641 20.26486328 -187.46337891 19.43212891 C-179.67638769 12.79446765 -171.70557562 7.02916837 -162.68994141 2.16259766 C-161.03716519 1.26802571 -159.39733407 0.349302 -157.76806641 -0.58740234 C-150.85439099 -4.51517157 -143.79353953 -7.4245416 -136.32275391 -10.11865234 C-135.53126953 -10.4300415 -134.73978516 -10.74143066 -133.92431641 -11.06225586 C-126.82894029 -13.79179049 -119.79158033 -15.44300386 -112.32275391 -16.80615234 C-111.22447266 -17.01820312 -110.12619141 -17.23025391 -108.99462891 -17.44873047 C-71.44408692 -24.50057988 -33.63157229 -17.70036427 0 0 Z " fill="#000000" transform="translate(336.32275390625,64.11865234375)"/>
<path d="M0 0 C-0.54855348 4.571279 -1.41744803 8.67435795 -3 13 C-3.763125 12.835 -4.52625 12.67 -5.3125 12.5 C-11.75672343 11.62620699 -18.6783323 11.23170134 -25 13 C-26.32006573 15.16924452 -26.32006573 15.16924452 -27 18 C-27.37125 19.11375 -27.7425 20.2275 -28.125 21.375 C-29.85948832 28.56073731 -28.96523097 34.33467648 -26 41 C-24.54002013 43.62716577 -24.54002013 43.62716577 -22 45 C-18.96570513 45.60895883 -16.10632524 45.81727499 -13 46 C-13 42.7 -13 39.4 -13 36 C-14.7015625 36.0309375 -14.7015625 36.0309375 -16.4375 36.0625 C-20 36 -20 36 -21 35 C-21.14355117 30.99779347 -21.04216403 27.00558317 -21 23 C-13.41 23 -5.82 23 2 23 C2 33.56 2 44.12 2 55 C-9.0482146 59.9103176 -17.16783425 61.89445476 -28.6796875 57.9609375 C-35.78565016 55.01806408 -38.8138103 51.36701032 -42.0546875 44.40234375 C-45.72524487 35.07427441 -45.49755109 21.51621893 -42.04296875 12.109375 C-38.97584154 5.90619637 -35.14427873 1.33928192 -29 -2 C-20.09804226 -4.68357961 -8.27145055 -4.22371943 0 0 Z " fill="#000000" transform="translate(188,410)"/>
<path d="M0 0 C4.62 0 9.24 0 14 0 C14.94096236 7.05721772 15.08185457 13.87865236 15 21 C21.93 21.495 21.93 21.495 29 22 C29 14.74 29 7.48 29 0 C33.62 0 38.24 0 43 0 C43 19.47 43 38.94 43 59 C40.32356043 59.89214652 38.74615622 60.13540211 36 60.125 C34.9790625 60.12886719 34.9790625 60.12886719 33.9375 60.1328125 C32 60 32 60 29 59 C29 51.08 29 43.16 29 35 C24.05 35 19.1 35 14 35 C14.08378906 36.48113281 14.16757812 37.96226562 14.25390625 39.48828125 C14.35707192 41.42967152 14.45992001 43.37107869 14.5625 45.3125 C14.61857422 46.28896484 14.67464844 47.26542969 14.73242188 48.27148438 C14.80493164 49.67817383 14.80493164 49.67817383 14.87890625 51.11328125 C14.9260376 51.97735596 14.97316895 52.84143066 15.02172852 53.73168945 C15 56 15 56 14 59 C11.64729407 60.17635297 10.179248 60.13359359 7.5625 60.125 C6.38880859 60.12886719 6.38880859 60.12886719 5.19140625 60.1328125 C3 60 3 60 0 59 C0 39.53 0 20.06 0 0 Z " fill="#000000" transform="translate(243,409)"/>
<path d="M0 0 C4.62 0 9.24 0 14 0 C14.33 5.94 14.66 11.88 15 18 C16.32 17.67 17.64 17.34 19 17 C27.92184369 16.5751503 27.92184369 16.5751503 32 19 C38.95735138 26.11915025 39.37351574 32.68795806 39.26953125 42.2734375 C38.92681671 47.01183859 37.83603825 50.63940916 36 55 C35.34 55 34.68 55 34 55 C33.79375 55.61875 33.5875 56.2375 33.375 56.875 C31.38502553 59.9504151 29.52373395 60.20217345 26 61 C21.02135437 61.37574684 16.85420423 60.54259391 12.0703125 59.375 C9.4921378 58.90800987 7.52163985 59.36959004 5 60 C3.35 59.67 1.7 59.34 0 59 C0 39.53 0 20.06 0 0 Z M14 30 C14 35.61 14 41.22 14 47 C16.73905345 48.36952673 18.97087332 48.12621361 22 48 C22.66 47.67 23.32 47.34 24 47 C24.9702889 44.08913331 25.16467847 42.09776315 25.1875 39.0625 C25.20167969 38.20785156 25.21585937 37.35320312 25.23046875 36.47265625 C25.1159272 33.62806021 25.1159272 33.62806021 23 30 C20.03 30 17.06 30 14 30 Z " fill="#000000" transform="translate(331,409)"/>
<path d="M0 0 C2.78515625 -0.328125 2.78515625 -0.328125 6.0625 -0.25 C7.14660156 -0.23453125 8.23070312 -0.2190625 9.34765625 -0.203125 C12 0 12 0 13 1 C13.1584265 3.0708472 13.25124422 5.14678029 13.31640625 7.22265625 C13.35830078 8.48271484 13.40019531 9.74277344 13.44335938 11.04101562 C13.48317596 12.38150736 13.52288814 13.7220022 13.5625 15.0625 C13.60568042 16.40691523 13.64929456 17.7513166 13.69335938 19.09570312 C13.79985358 22.3970234 13.9018646 25.69842236 14 29 C16.64 29 19.28 29 22 29 C21.99214478 27.73555054 21.99214478 27.73555054 21.98413086 26.44555664 C21.96712174 23.32772064 21.95456594 20.20990823 21.94506836 17.09204102 C21.94002943 15.74079614 21.93319823 14.38955674 21.92456055 13.03833008 C21.91247581 11.09979566 21.90730172 9.161222 21.90234375 7.22265625 C21.89710693 6.05484619 21.89187012 4.88703613 21.88647461 3.68383789 C22 1 22 1 23 0 C24.99799572 -0.09873816 26.99957158 -0.12971799 29 -0.125 C30.093125 -0.12757813 31.18625 -0.13015625 32.3125 -0.1328125 C35 0 35 0 36 1 C36.08868299 3.95705321 36.11520296 6.89065056 36.09765625 9.84765625 C36.0962413 10.7340831 36.09482635 11.62050995 36.09336853 12.53379822 C36.08775215 15.37673254 36.07519691 18.21958931 36.0625 21.0625 C36.05748711 22.98502491 36.05292384 24.90755104 36.04882812 26.83007812 C36.03777741 31.55341549 36.02050183 36.27669458 36 41 C33.01002175 42.49498913 30.29957225 42.11577446 27 42 C25.515 41.505 25.515 41.505 24 41 C22.9275 41.309375 21.855 41.61875 20.75 41.9375 C14.56158662 43.69088379 9.78936432 43.18375404 3.796875 41.2421875 C1.04126081 39.33721943 0.29106301 37.06087953 -1 34 C-1.46411133 30.52075195 -1.46411133 30.52075195 -1.58203125 26.73828125 C-1.6047258 26.06580856 -1.62742035 25.39333588 -1.65080261 24.70048523 C-1.69511935 23.28969646 -1.73256444 21.87867648 -1.76342773 20.4675293 C-1.81261494 18.30745254 -1.88813408 16.14941783 -1.96679688 13.99023438 C-2.27419668 3.41129503 -2.27419668 3.41129503 0 0 Z " fill="#000000" transform="translate(291,427)"/>
<path d="M0 0 C1.93166016 0.01740234 1.93166016 0.01740234 3.90234375 0.03515625 C5.19269531 0.04417969 6.48304688 0.05320312 7.8125 0.0625 C8.81152344 0.07410156 9.81054688 0.08570313 10.83984375 0.09765625 C10.83984375 3.72765625 10.83984375 7.35765625 10.83984375 11.09765625 C12.13921875 11.07703125 13.43859375 11.05640625 14.77734375 11.03515625 C16.13150008 11.01366171 17.48740458 11.02617426 18.83984375 11.09765625 C19.83984375 12.09765625 19.83984375 12.09765625 19.9375 14.6015625 C19.92589844 15.61089844 19.91429687 16.62023437 19.90234375 17.66015625 C19.89332031 18.67207031 19.88429687 19.68398438 19.875 20.7265625 C19.86339844 21.50902344 19.85179687 22.29148437 19.83984375 23.09765625 C17.83984375 24.09765625 17.83984375 24.09765625 10.83984375 24.09765625 C11.33484375 32.01765625 11.33484375 32.01765625 11.83984375 40.09765625 C15.30484375 40.59265625 15.30484375 40.59265625 18.83984375 41.09765625 C19.83984375 42.09765625 19.83984375 42.09765625 19.9375 44.3828125 C19.92589844 45.29933594 19.91429687 46.21585937 19.90234375 47.16015625 C19.89332031 48.07925781 19.88429687 48.99835938 19.875 49.9453125 C19.86339844 50.65558594 19.85179687 51.36585938 19.83984375 52.09765625 C14.40822329 54.52759172 9.53388937 54.52116765 3.83984375 53.09765625 C0.37308214 51.32165133 -1.7102862 49.11215913 -3.30859375 45.5078125 C-4.39195669 41.16939118 -4.37739616 37.17145826 -4.28515625 32.72265625 C-4.27613281 31.89121094 -4.26710937 31.05976563 -4.2578125 30.203125 C-4.23441845 28.16784288 -4.1985535 26.13271061 -4.16015625 24.09765625 C-6.14015625 23.76765625 -8.12015625 23.43765625 -10.16015625 23.09765625 C-10.16015625 20.12765625 -10.16015625 17.15765625 -10.16015625 14.09765625 C-8.18015625 13.43765625 -6.20015625 12.77765625 -4.16015625 12.09765625 C-4.17175781 11.31519531 -4.18335938 10.53273438 -4.1953125 9.7265625 C-4.20433594 8.71464844 -4.21335938 7.70273437 -4.22265625 6.66015625 C-4.23425781 5.65082031 -4.24585938 4.64148438 -4.2578125 3.6015625 C-4.11172173 -0.14420474 -3.82636297 0.1182436 0 0 Z " fill="#000000" transform="translate(220.16015625,415.90234375)"/>
<path d="M0 0 C1.093125 0.00257813 2.18625 0.00515625 3.3125 0.0078125 C4.405625 0.00523437 5.49875 0.00265625 6.625 0 C9.3125 0.1328125 9.3125 0.1328125 10.3125 1.1328125 C10.40118299 4.08986571 10.42770296 7.02346306 10.41015625 9.98046875 C10.4087413 10.8668956 10.40732635 11.75332245 10.40586853 12.66661072 C10.40025215 15.50954504 10.38769691 18.35240181 10.375 21.1953125 C10.36998711 23.11783741 10.36542384 25.04036354 10.36132812 26.96289062 C10.35027741 31.68622799 10.33300183 36.40950708 10.3125 41.1328125 C8.73023035 41.32908641 7.14660729 41.51446788 5.5625 41.6953125 C4.23992187 41.85193359 4.23992187 41.85193359 2.890625 42.01171875 C0.40589997 42.12842553 -1.31662844 41.78722593 -3.6875 41.1328125 C-3.71214705 35.45451172 -3.73033462 29.77624181 -3.74243164 24.09790039 C-3.74747256 22.16462665 -3.75430519 20.23135674 -3.76293945 18.2980957 C-3.77501565 15.52554378 -3.78073057 12.75304209 -3.78515625 9.98046875 C-3.79031754 9.11067886 -3.79547882 8.24088898 -3.80079651 7.34474182 C-3.80099185 5.27375436 -3.74958168 3.20286926 -3.6875 1.1328125 C-2.6875 0.1328125 -2.6875 0.1328125 0 0 Z " fill="#000000" transform="translate(197.6875,426.8671875)"/>
<path d="M0 0 C2.06640625 0.48046875 2.06640625 0.48046875 4.19140625 2.54296875 C5.30697601 6.28809581 5.04351992 8.71160172 4.06640625 12.48046875 C2.94140625 14.41796875 2.94140625 14.41796875 1.06640625 15.48046875 C-2.51352507 15.87100671 -5.00122329 15.89758185 -8.30859375 14.41796875 C-10.76649089 11.48739908 -10.93359375 9.25957491 -10.93359375 5.48046875 C-8.48750412 0.2547318 -5.3839164 -0.32817942 0 0 Z " fill="#000000" transform="translate(203.93359375,410.51953125)"/>
</svg>
