<?xml version="1.0" encoding="UTF-8"?>
<svg version="1.1" xmlns="http://www.w3.org/2000/svg" width="3000" height="3000">
<path d="M0 0 C1.71943767 -0.00124395 3.43887507 -0.0029254 5.15831193 -0.00500236 C9.89391029 -0.00945054 14.62948907 -0.00767472 19.36508795 -0.00490058 C24.53225931 -0.002978 29.69942688 -0.0068604 34.86659721 -0.00999737 C43.96123071 -0.01471296 53.05585876 -0.0156951 62.15049329 -0.01426902 C75.76571408 -0.01214981 89.38092922 -0.01575853 102.99614914 -0.0204838 C126.19901945 -0.02836217 149.40188759 -0.03145405 172.60475904 -0.03192973 C196.12617742 -0.03242421 219.64759408 -0.0350691 243.16901189 -0.04033732 C244.66840755 -0.04067086 246.1678032 -0.04100433 247.66719886 -0.04133773 C253.7127387 -0.04268584 259.75827853 -0.04404914 265.80381837 -0.04542983 C332.30665984 -0.06059641 398.80950089 -0.06737267 465.31234382 -0.0718518 C466.57412747 -0.07193683 466.57412747 -0.07193683 467.8614017 -0.07202359 C472.11633096 -0.07231011 476.37126021 -0.07259514 480.62618947 -0.0728777 C516.27645948 -0.07525293 551.9267293 -0.07896263 587.57699917 -0.0829148 C604.65038079 -0.08480739 621.72376242 -0.08663589 638.79714406 -0.088449 C639.64628279 -0.08853919 640.49542152 -0.08862938 641.37029172 -0.0887223 C682.23838193 -0.09305855 723.10647217 -0.09698687 763.97456247 -0.10044932 C764.84635103 -0.1005232 765.7181396 -0.10059707 766.61634601 -0.10067318 C822.17509356 -0.10536816 877.73384104 -0.10819118 933.29258876 -0.1098361 C937.84770566 -0.10997168 942.40282256 -0.11011071 946.95793946 -0.11024964 C954.26088948 -0.11047212 961.5638395 -0.11069349 968.86678952 -0.11091352 C969.77174871 -0.11094079 970.67670791 -0.11096806 971.60909011 -0.11099616 C973.43808475 -0.11105127 975.26707939 -0.11110639 977.09607404 -0.11116149 C989.92593537 -0.11154811 1002.75579671 -0.11193605 1015.58565805 -0.11233062 C1020.17644536 -0.11247173 1024.76723267 -0.11261181 1029.35801998 -0.11274952 C1116.05912888 -0.11535362 1202.76023599 -0.12068299 1289.46134359 -0.13663173 C1290.3740079 -0.13679952 1291.28667221 -0.13696731 1292.22699302 -0.13714019 C1320.74260992 -0.14239088 1349.25822676 -0.14796524 1377.77384359 -0.1535995 C1407.03304048 -0.15938052 1436.29223738 -0.16511109 1465.55143434 -0.17055583 C1466.90281026 -0.17080754 1466.90281026 -0.17080754 1468.2814867 -0.17106434 C1524.7089433 -0.18155826 1581.1363994 -0.18841933 1637.5638569 -0.19142222 C1638.43544481 -0.19146904 1639.30703273 -0.19151585 1640.2050324 -0.19156408 C1678.48420482 -0.19361479 1716.76337723 -0.19485883 1755.0425497 -0.19521013 C1770.44267853 -0.1953534 1785.84280736 -0.19559206 1801.24293618 -0.19587419 C1803.79633902 -0.19591972 1806.34974185 -0.19596137 1808.90314469 -0.1960023 C1847.95357151 -0.1966483 1887.00399628 -0.19960397 1926.05442196 -0.20946288 C1926.89635889 -0.20967525 1927.73829583 -0.20988762 1928.605746 -0.21010643 C1942.14906445 -0.21353515 1955.69238285 -0.21714813 1969.23570124 -0.22078283 C2007.69053927 -0.23109815 2046.14537477 -0.23987695 2084.60021442 -0.23793817 C2085.77109167 -0.23788006 2085.77109167 -0.23788006 2086.965623 -0.23782078 C2103.99715722 -0.23694413 2121.02869125 -0.2352319 2138.06022529 -0.23270115 C2144.85331833 -0.23170442 2151.64641139 -0.23081776 2158.43950444 -0.22996593 C2159.55100875 -0.22982209 2159.55100875 -0.22982209 2160.68496769 -0.22967536 C2184.16984632 -0.22668861 2207.65471034 -0.23291156 2231.13958597 -0.24448479 C2254.91330587 -0.25616078 2278.6869976 -0.2574577 2302.46071937 -0.24616911 C2315.98090971 -0.24007019 2329.50103854 -0.24217409 2343.02122309 -0.25642108 C2352.00353083 -0.26506565 2360.98579337 -0.26280296 2369.96809832 -0.25172237 C2375.05795577 -0.24574732 2380.14769277 -0.24434234 2385.23754216 -0.25640723 C2424.54468362 -0.3433752 2461.99560278 3.03587953 2497.23600179 22.09054112 C2499.1597303 23.12838704 2501.09736435 24.13606294 2503.03727132 25.1432755 C2520.31522817 34.29549252 2535.30109867 46.4214726 2549.15836507 60.1276505 C2550.04334676 60.98628697 2550.04334676 60.98628697 2550.94620687 61.86226964 C2554.76125186 65.59978358 2558.21530339 69.45865687 2561.47086507 73.6901505 C2561.93815023 74.29455968 2562.40543538 74.89896886 2562.8868807 75.52169347 C2564.31845316 77.38457302 2565.73910447 79.25538143 2567.15836507 81.1276505 C2567.7991097 81.9612711 2567.7991097 81.9612711 2568.45279866 82.81173253 C2595.01417466 117.53784906 2607.3474338 160.64409463 2607.28601557 203.96928543 C2607.28725952 205.6887231 2607.28894097 207.4081605 2607.29101793 209.12759736 C2607.29546611 213.86319571 2607.29369029 218.5987745 2607.29091615 223.33437337 C2607.28899357 228.50154474 2607.29287597 233.66871231 2607.29601294 238.83588263 C2607.30072853 247.93051613 2607.30171067 257.02514419 2607.30028459 266.11977872 C2607.29816538 279.7349995 2607.3017741 293.35021465 2607.30649937 306.96543457 C2607.31437774 330.16830488 2607.31746962 353.37117302 2607.3179453 376.57404447 C2607.31843978 400.09546285 2607.32108467 423.61687951 2607.32635289 447.13829732 C2607.32668644 448.63769297 2607.3270199 450.13708863 2607.3273533 451.63648428 C2607.32870141 457.68202413 2607.33006471 463.72756396 2607.3314454 469.7731038 C2607.34661198 536.27594527 2607.35338824 602.77878631 2607.35786737 669.28162925 C2607.35792406 670.12281835 2607.35798075 670.96400745 2607.35803916 671.83068713 C2607.35832568 676.08561638 2607.35861071 680.34054564 2607.35889327 684.5954749 C2607.3612685 720.24574491 2607.3649782 755.89601473 2607.36893037 791.5462846 C2607.37082296 808.61966622 2607.37265146 825.69304785 2607.37446457 842.76642948 C2607.37455476 843.61556821 2607.37464495 844.46470695 2607.37473787 845.33957715 C2607.37907412 886.20766736 2607.38300244 927.0757576 2607.38646489 967.94384789 C2607.38653877 968.81563646 2607.38661264 969.68742503 2607.38668875 970.58563144 C2607.39138373 1026.14437898 2607.39420675 1081.70312647 2607.39585167 1137.26187419 C2607.39598725 1141.81699109 2607.39612628 1146.37210799 2607.39626521 1150.92722488 C2607.39648769 1158.23017491 2607.39670906 1165.53312493 2607.39692909 1172.83607495 C2607.39695636 1173.74103414 2607.39698364 1174.64599334 2607.39701173 1175.57837554 C2607.39706685 1177.40737018 2607.39712196 1179.23636482 2607.39717706 1181.06535947 C2607.39756368 1193.8952208 2607.39795162 1206.72508214 2607.39834619 1219.55494348 C2607.3984873 1224.14573079 2607.39862738 1228.7365181 2607.39876509 1233.32730541 C2607.40136919 1320.02841431 2607.40669856 1406.72952142 2607.4226473 1493.43062901 C2607.42281509 1494.34329333 2607.42298288 1495.25595764 2607.42315576 1496.19627845 C2607.42840645 1524.71189535 2607.43398081 1553.22751219 2607.43961507 1581.74312901 C2607.44539609 1611.00232591 2607.45112666 1640.26152281 2607.4565714 1669.52071977 C2607.45682311 1670.87209569 2607.45682311 1670.87209569 2607.45707991 1672.25077213 C2607.46757383 1728.67822873 2607.4744349 1785.10568483 2607.47743779 1841.53314233 C2607.47748461 1842.40473024 2607.47753142 1843.27631816 2607.47757965 1844.17431783 C2607.47963036 1882.45349025 2607.4808744 1920.73266266 2607.4812257 1959.01183513 C2607.48136897 1974.41196396 2607.48160763 1989.81209278 2607.48188976 2005.21222161 C2607.48193529 2007.76562444 2607.48197694 2010.31902728 2607.48201787 2012.87243012 C2607.48266387 2051.92285693 2607.48561954 2090.97328171 2607.49547845 2130.02370739 C2607.49579701 2131.28661279 2607.49579701 2131.28661279 2607.496122 2132.57503143 C2607.49955072 2146.11834988 2607.5031637 2159.66166827 2607.5067984 2173.20498667 C2607.51711372 2211.6598247 2607.52589252 2250.1146602 2607.52395374 2288.56949985 C2607.52389563 2289.7403771 2607.52389563 2289.7403771 2607.52383635 2290.93490843 C2607.5229597 2307.96644265 2607.52124747 2324.99797667 2607.51871672 2342.02951072 C2607.51771999 2348.82260376 2607.51683333 2355.61569681 2607.5159815 2362.40878987 C2607.51588561 2363.14979275 2607.51578972 2363.89079562 2607.51569093 2364.65425312 C2607.51270418 2388.13913175 2607.51892713 2411.62399577 2607.53050036 2435.1088714 C2607.54217635 2458.8825913 2607.54347327 2482.65628303 2607.53218468 2506.4300048 C2607.52608576 2519.95019514 2607.52818966 2533.47032397 2607.54243665 2546.99050852 C2607.55108122 2555.97281626 2607.54881853 2564.95507879 2607.53773794 2573.93738375 C2607.53176289 2579.0272412 2607.53035791 2584.1169782 2607.5424228 2589.20682759 C2607.62939077 2628.51396905 2604.25013604 2665.96488821 2585.19547445 2701.20528722 C2584.15762853 2703.12901573 2583.14995263 2705.06664978 2582.14274007 2707.00655675 C2572.99052305 2724.2845136 2560.86454297 2739.27038409 2547.15836507 2753.1276505 C2546.2997286 2754.01263219 2546.2997286 2754.01263219 2545.42374593 2754.9154923 C2541.68623199 2758.73053729 2537.8273587 2762.18458882 2533.59586507 2765.4401505 C2532.6892513 2766.14107823 2532.6892513 2766.14107823 2531.7643221 2766.85616612 C2529.90144255 2768.28773859 2528.03063414 2769.7083899 2526.15836507 2771.1276505 C2525.602618 2771.55481359 2525.04687093 2771.98197667 2524.47428304 2772.42208409 C2489.74816651 2798.98346009 2446.64192094 2811.31671923 2403.31673014 2811.255301 C2401.59729247 2811.25654495 2399.87785507 2811.2582264 2398.15841821 2811.26030336 C2393.42281986 2811.26475154 2388.68724107 2811.26297572 2383.9516422 2811.26020158 C2378.78447083 2811.258279 2373.61730326 2811.2621614 2368.45013294 2811.26529837 C2359.35549944 2811.27001396 2350.26087138 2811.27099609 2341.16623686 2811.26957002 C2327.55101607 2811.2674508 2313.93580092 2811.27105953 2300.320581 2811.2757848 C2277.11771069 2811.28366317 2253.91484255 2811.28675505 2230.7119711 2811.28723073 C2207.19055273 2811.28772521 2183.66913606 2811.29037009 2160.14771825 2811.29563832 C2158.6483226 2811.29597186 2157.14892694 2811.29630533 2155.64953129 2811.29663873 C2149.60399144 2811.29798684 2143.55845161 2811.29935014 2137.51291177 2811.30073083 C2071.0100703 2811.31589741 2004.50722926 2811.32267367 1938.00438632 2811.3271528 C1937.16319722 2811.32720949 1936.32200812 2811.32726618 1935.45532844 2811.32732458 C1931.20039919 2811.32761111 1926.94546993 2811.32789614 1922.69054067 2811.3281787 C1887.04027066 2811.33055393 1851.39000084 2811.33426363 1815.73973097 2811.3382158 C1798.66634935 2811.34010839 1781.59296772 2811.34193689 1764.51958609 2811.34375 C1763.67044736 2811.34384019 1762.82130862 2811.34393038 1761.94643842 2811.3440233 C1721.07834821 2811.34835954 1680.21025797 2811.35228787 1639.34216768 2811.35575032 C1638.47037911 2811.35582419 1637.59859054 2811.35589807 1636.70038413 2811.35597418 C1581.14163659 2811.36066916 1525.5828891 2811.36349217 1470.02414138 2811.3651371 C1465.46902448 2811.36527268 1460.91390758 2811.36541171 1456.35879069 2811.36555064 C1449.05584066 2811.36577312 1441.75289064 2811.36599449 1434.44994062 2811.36621452 C1433.54498143 2811.36624179 1432.64002223 2811.36626906 1431.70764003 2811.36629716 C1429.87864539 2811.36635227 1428.04965075 2811.36640738 1426.22065611 2811.36646249 C1413.39079477 2811.36684911 1400.56093343 2811.36723705 1387.73107209 2811.36763162 C1383.14028478 2811.36777273 1378.54949747 2811.3679128 1373.95871016 2811.36805052 C1287.25760126 2811.37065462 1200.55649415 2811.37598399 1113.85538656 2811.39193273 C1112.48639009 2811.39218442 1112.48639009 2811.39218442 1111.08973712 2811.39244119 C1082.57412022 2811.39769188 1054.05850338 2811.40326624 1025.54288656 2811.4089005 C996.28368966 2811.41468152 967.02449276 2811.42041209 937.7652958 2811.42585683 C936.41391988 2811.42610854 936.41391988 2811.42610854 935.03524344 2811.42636534 C878.60778684 2811.43685926 822.18033074 2811.44372033 765.75287324 2811.44672322 C764.88128533 2811.44677003 764.00969741 2811.44681685 763.11169774 2811.44686508 C724.83252532 2811.44891578 686.55335291 2811.45015983 648.27418044 2811.45051113 C632.87405161 2811.4506544 617.47392279 2811.45089306 602.07379396 2811.45117519 C599.52039113 2811.45122072 596.96698829 2811.45126237 594.41358545 2811.4513033 C555.36315864 2811.45194929 516.31273386 2811.45490497 477.26230818 2811.46476388 C476.42037125 2811.46497625 475.57843432 2811.46518862 474.71098414 2811.46540743 C461.16766569 2811.46883614 447.6243473 2811.47244913 434.0810289 2811.47608383 C395.62619087 2811.48639915 357.17135537 2811.49517795 318.71651572 2811.49323916 C317.54563847 2811.49318106 317.54563847 2811.49318106 316.35110714 2811.49312177 C299.31957292 2811.49224513 282.2880389 2811.49053289 265.25650485 2811.48800215 C258.46341181 2811.48700542 251.67031876 2811.48611876 244.8772257 2811.48526692 C243.76572139 2811.48512309 243.76572139 2811.48512309 242.63176245 2811.48497636 C219.14688382 2811.48198961 195.6620198 2811.48821256 172.17714417 2811.49978579 C148.40342427 2811.51146178 124.62973254 2811.51275869 100.85601077 2811.50147011 C87.33582043 2811.49537119 73.8156916 2811.49747509 60.29550705 2811.51172208 C51.31319931 2811.52036665 42.33093678 2811.51810396 33.34863182 2811.50702337 C28.25877437 2811.50104831 23.16903737 2811.49964334 18.07918798 2811.51170823 C-21.22795348 2811.5986762 -58.67887264 2808.21942147 -93.91927165 2789.16475987 C-95.84300016 2788.12691396 -97.78063421 2787.11923806 -99.72054118 2786.1120255 C-116.99849803 2776.95980847 -131.98436852 2764.8338284 -145.84163493 2751.1276505 C-146.72661662 2750.26901402 -146.72661662 2750.26901402 -147.62947673 2749.39303136 C-151.44452172 2745.65551742 -154.89857325 2741.79664413 -158.15413493 2737.5651505 C-158.85506266 2736.65853673 -158.85506266 2736.65853673 -159.57015055 2735.73360753 C-161.00172302 2733.87072798 -162.42237433 2731.99991957 -163.84163493 2730.1276505 C-164.26879802 2729.57190343 -164.6959611 2729.01615636 -165.13606852 2728.44356847 C-191.69744452 2693.71745194 -204.03070366 2650.61120636 -203.96928543 2607.28601557 C-203.97052938 2605.5665779 -203.97221083 2603.8471405 -203.97428779 2602.12770364 C-203.97873597 2597.39210528 -203.97696015 2592.6565265 -203.97418601 2587.92092762 C-203.97226343 2582.75375626 -203.97614583 2577.58658869 -203.9792828 2572.41941836 C-203.98399839 2563.32478486 -203.98498052 2554.23015681 -203.98355445 2545.13552228 C-203.98143523 2531.52030149 -203.98504396 2517.90508635 -203.98976923 2504.28986643 C-203.9976476 2481.08699612 -204.00073948 2457.88412798 -204.00121516 2434.68125653 C-204.00170964 2411.15983815 -204.00435452 2387.63842149 -204.00962275 2364.11700368 C-204.00995629 2362.61760802 -204.01028976 2361.11821237 -204.01062316 2359.61881671 C-204.01197127 2353.57327687 -204.01333457 2347.52773704 -204.01471526 2341.4821972 C-204.02988184 2274.97935573 -204.0366581 2208.47651468 -204.04113723 2141.97367175 C-204.04119392 2141.13248265 -204.04125061 2140.29129355 -204.04130901 2139.42461387 C-204.04159554 2135.16968461 -204.04188057 2130.91475536 -204.04216313 2126.6598261 C-204.04453836 2091.00955609 -204.04824806 2055.35928627 -204.05220023 2019.7090164 C-204.05409282 2002.63563478 -204.05592132 1985.56225315 -204.05773443 1968.48887151 C-204.05782462 1967.63973278 -204.05791481 1966.79059405 -204.05800773 1965.91572385 C-204.06234397 1925.04763364 -204.0662723 1884.1795434 -204.06973475 1843.3114531 C-204.06980862 1842.43966454 -204.0698825 1841.56787597 -204.06995861 1840.66966956 C-204.07465359 1785.11092202 -204.0774766 1729.55217453 -204.07912153 1673.99342681 C-204.07925711 1669.43830991 -204.07939614 1664.88319301 -204.07953507 1660.32807611 C-204.07975755 1653.02512609 -204.07997892 1645.72217607 -204.08019895 1638.41922605 C-204.08022622 1637.51426686 -204.08025349 1636.60930766 -204.08028159 1635.67692546 C-204.0803367 1633.84793082 -204.08039181 1632.01893618 -204.08044692 1630.18994153 C-204.08083354 1617.3600802 -204.08122148 1604.53021886 -204.08161605 1591.70035752 C-204.08175716 1587.10957021 -204.08189723 1582.5187829 -204.08203495 1577.92799559 C-204.08463905 1491.22688669 -204.08996842 1404.52577958 -204.10591716 1317.82467198 C-204.10616885 1316.45567551 -204.10616885 1316.45567551 -204.10642562 1315.05902255 C-204.11167631 1286.54340565 -204.11725067 1258.02778881 -204.12288493 1229.51217198 C-204.12866595 1200.25297509 -204.13439652 1170.99377819 -204.13984126 1141.73458123 C-204.14000907 1140.83366395 -204.14017687 1139.93274667 -204.14034977 1139.00452887 C-204.15084369 1082.57707227 -204.15770476 1026.14961617 -204.16070765 969.72215867 C-204.16075446 968.85057076 -204.16080128 967.97898284 -204.16084951 967.08098317 C-204.16290021 928.80181075 -204.16414426 890.52263834 -204.16449556 852.24346587 C-204.16463883 836.84333704 -204.16487749 821.44320821 -204.16515962 806.04307939 C-204.16520515 803.48967655 -204.1652468 800.93627372 -204.16528773 798.38287088 C-204.16593372 759.33244406 -204.1688894 720.28201929 -204.17874831 681.23159361 C-204.17896068 680.38965668 -204.17917305 679.54771974 -204.17939186 678.68026957 C-204.18282057 665.13695112 -204.18643356 651.59363272 -204.19006826 638.05031433 C-204.20038358 599.5954763 -204.20916238 561.1406408 -204.20722359 522.68580115 C-204.20716549 521.5149239 -204.20716549 521.5149239 -204.2071062 520.32039257 C-204.20622956 503.28885835 -204.20451732 486.25732432 -204.20198658 469.22579028 C-204.20098985 462.43269724 -204.20010319 455.63960418 -204.19925135 448.84651113 C-204.19915547 448.10550825 -204.19905958 447.36450538 -204.19896079 446.60104788 C-204.19597404 423.11616925 -204.20219699 399.63130523 -204.21377022 376.1464296 C-204.22544621 352.3727097 -204.22674312 328.59901797 -204.21545454 304.8252962 C-204.20935562 291.30510586 -204.21145952 277.78497703 -204.22570651 264.26479248 C-204.23435108 255.28248474 -204.23208839 246.30022221 -204.2210078 237.31791725 C-204.21503274 232.2280598 -204.21362777 227.1383228 -204.22569266 222.04847341 C-204.31266063 182.74133195 -200.9334059 145.29041279 -181.8787443 110.05001378 C-180.84089839 108.12628527 -179.83322249 106.18865122 -178.82600993 104.24874425 C-169.6737929 86.9707874 -157.54781283 71.98491691 -143.84163493 58.1276505 C-143.26921061 57.53766271 -142.6967863 56.94767491 -142.10701579 56.3398087 C-138.36950185 52.52476371 -134.51062856 49.07071218 -130.27913493 45.8151505 C-129.67472575 45.34786534 -129.07031657 44.88058019 -128.44759196 44.39913487 C-126.58471241 42.96756241 -124.713904 41.5469111 -122.84163493 40.1276505 C-122.28588786 39.70048741 -121.73014079 39.27332433 -121.1575529 38.83321691 C-86.43143637 12.27184091 -43.32519079 -0.06141823 0 0 Z M481.15836507 653.1276505 C480.36559163 653.86757237 479.5728182 654.60749425 478.75602132 655.369838 C447.62953839 685.2381327 432.36560407 729.47758492 430.97086507 771.8776505 C430.0990116 815.80460968 444.18192184 858.87280625 473.15836507 892.1276505 C473.98852132 893.09186925 474.81867757 894.056088 475.67399007 895.0495255 C507.90143619 931.77937932 555.69559337 950.33693042 603.63883382 953.91158605 C650.97769695 956.81772463 704.39553751 948.51988461 743.15836507 919.1276505 C744.69363851 918.01196691 744.69363851 918.01196691 746.25992757 916.87374425 C758.63349631 907.75882094 769.9289482 897.45599566 779.15836507 885.1276505 C779.55475179 884.60622472 779.95113851 884.08479894 780.35953695 883.54757237 C808.59614862 846.2364802 819.83346754 800.11843722 814.07779866 753.76510167 C807.74456641 709.2496014 786.4281285 666.40347065 750.24723226 638.66231847 C720.79764457 616.72481237 686.73015005 603.81484101 650.15836507 600.1276505 C649.19285726 600.01679112 648.22734945 599.90593175 647.23258382 599.791713 C586.6708655 593.85586246 525.49062502 610.8301118 481.15836507 653.1276505 Z M1464.15836507 1108.1276505 C1463.47210042 1108.47843663 1462.78583577 1108.82922276 1462.07877523 1109.19063878 C1443.55364305 1118.77966712 1425.72138243 1130.4794712 1409.69889241 1143.84737706 C1408.17592157 1145.11305997 1406.63007908 1146.35105605 1405.08414632 1147.588588 C1396.67873999 1154.4334861 1389.02216117 1162.05240058 1381.34586507 1169.6901505 C1380.54189794 1170.48621709 1380.54189794 1170.48621709 1379.72168905 1171.29836583 C1372.72716802 1178.23971848 1366.2840514 1185.3928604 1360.15836507 1193.1276505 C1359.06202725 1194.45641754 1357.96213562 1195.78226603 1356.85758382 1197.104213 C1349.64386981 1205.81668273 1342.96425931 1214.79328456 1336.55289632 1224.11007237 C1335.18485523 1226.08932511 1333.79980599 1228.05542152 1332.40836507 1230.0182755 C1331.57491049 1231.2004817 1330.74157037 1232.3827686 1329.90836507 1233.5651505 C1329.18133382 1234.59511144 1328.45430257 1235.62507237 1327.70524007 1236.68624425 C1325.97996079 1238.92752203 1325.97996079 1238.92752203 1326.15836507 1241.1276505 C1325.49836507 1241.1276505 1324.83836507 1241.1276505 1324.15836507 1241.1276505 C1324.15836507 1192.9476505 1324.15836507 1144.7676505 1324.15836507 1095.1276505 C1211.62836507 1095.1276505 1099.09836507 1095.1276505 983.15836507 1095.1276505 C983.48836507 1126.1476505 983.81836507 1157.1676505 984.15836507 1189.1276505 C984.23272071 1206.76769033 984.29953958 1224.40512635 984.28909606 1242.04489756 C984.28669802 1248.1112324 984.29033933 1254.17756524 984.293001 1260.24389958 C984.29704612 1271.35209275 984.29678599 1282.46027997 984.29402574 1293.56847339 C984.2914813 1303.91868674 984.29116251 1314.26889776 984.29268438 1324.6191113 C984.29278515 1325.32335778 984.29288592 1326.02760426 984.29298975 1326.75319154 C984.29340147 1329.61905587 984.29382026 1332.4849202 984.29425034 1335.35078453 C984.29856711 1364.47190997 984.29531071 1393.59303125 984.28893012 1422.71415609 C984.28826037 1425.78553045 984.2875957 1428.8569048 984.28693563 1431.92827916 C984.28677138 1432.69004982 984.28660713 1433.45182048 984.28643791 1434.2366751 C984.28297839 1450.49119488 984.28182519 1466.74571456 984.28094169 1483.00023465 C984.276833 1557.56538548 984.26352332 1632.13055205 983.5143221 1941.4257462 C983.50850519 1942.72905428 983.50268828 1944.03236236 983.4966951 1945.37516463 C983.43949477 1958.18861912 983.38035033 1971.00204657 983.31080037 1983.81544042 C983.07878978 2030.58729265 983.15836507 2077.35292948 983.15836507 2124.1276505 C1095.68836507 2124.1276505 1208.21836507 2124.1276505 1324.15836507 2124.1276505 C1324.20734945 2081.88507237 1324.25633382 2039.64249425 1324.30680257 1996.119838 C1324.3400721 1970.96620921 1324.37347629 1945.812582 1324.4093464 1920.658957 C1324.43038251 1905.90050442 1324.45132738 1891.14205172 1324.47199076 1876.38359861 C1324.47449008 1874.59867916 1324.47699227 1872.81375971 1324.47949737 1871.02884026 C1324.5193363 1842.62608898 1324.55286215 1814.22333461 1324.58305198 1785.82057156 C1324.6141406 1756.60397003 1324.65169694 1727.38738367 1324.69727119 1698.17080097 C1324.70372061 1694.03431802 1324.71009688 1689.89783496 1324.71642858 1685.76135182 C1324.71767688 1684.94731573 1324.71892519 1684.13327964 1324.72021132 1683.29457578 C1324.74003411 1670.24564635 1324.75313597 1657.19671862 1324.76365835 1644.14777874 C1324.77440948 1630.99600929 1324.79239847 1617.84426494 1324.81753211 1604.692515 C1324.83092953 1597.58010713 1324.84125891 1590.4677291 1324.84257871 1583.35530782 C1324.86090893 1508.95170922 1330.52271874 1447.46287044 1384.72086507 1391.3151505 C1389.27067667 1386.93991201 1394.19952281 1383.02477591 1399.15836507 1379.1276505 C1399.93035238 1378.50116612 1399.93035238 1378.50116612 1400.71793538 1377.8620255 C1439.77132924 1346.29604434 1490.34571737 1337.71589766 1539.12516195 1342.77267003 C1569.09174872 1346.27970618 1597.05593945 1357.66902209 1620.15836507 1377.1276505 C1620.92020101 1377.75413487 1621.68203695 1378.38061925 1622.46695882 1379.026088 C1628.48796895 1384.13925085 1633.32544312 1389.89948499 1638.15836507 1396.1276505 C1638.88926351 1397.03128331 1639.62016195 1397.93491612 1640.37320882 1398.86593175 C1668.82469402 1435.01781892 1678.88989697 1483.33596085 1683.15836507 1528.1276505 C1683.24165168 1528.99306026 1683.32493828 1529.85847001 1683.41074872 1530.75010431 C1684.38949578 1542.46161702 1684.31186044 1554.16187335 1684.31658345 1565.90618443 C1684.32115505 1568.31890185 1684.32615594 1570.73161848 1684.33154702 1573.1443342 C1684.34225232 1578.37256059 1684.3499518 1583.60078233 1684.35494596 1588.82901692 C1684.36238855 1596.60308539 1684.37547986 1604.37713734 1684.38969171 1612.15119602 C1684.41344567 1625.23142554 1684.4326735 1638.31165801 1684.44929105 1651.39189839 C1684.46575126 1664.33655633 1684.48424201 1677.28120877 1684.50542432 1690.22585988 C1684.50674193 1691.03175135 1684.50805953 1691.83764282 1684.50941707 1692.66795525 C1684.51611947 1696.76093601 1684.52285796 1700.85391672 1684.52961033 1704.9468974 C1684.57732985 1733.91160273 1684.62052732 1762.87631319 1684.66105062 1791.84102941 C1684.70042042 1819.97384571 1684.74186426 1848.10665773 1684.78605062 1876.23946691 C1684.78882796 1878.00960306 1684.79160524 1879.77973922 1684.79438245 1881.54987538 C1684.81696082 1895.933767 1684.839682 1910.31765839 1684.86243781 1924.70154972 C1684.96750118 1991.1769081 1685.06213078 2057.65227756 1685.15836507 2124.1276505 C1798.01836507 2124.1276505 1910.87836507 2124.1276505 2027.15836507 2124.1276505 C2027.21582408 2020.32336364 2027.21582408 2020.32336364 2027.254695 1916.51907384 C2027.25877669 1901.44071618 2027.26295214 1886.36235854 2027.26741706 1871.28400099 C2027.26795675 1869.46056195 2027.2684935 1867.63712291 2027.26902725 1865.81368387 C2027.27753369 1836.83681536 2027.29252061 1807.85995475 2027.31095951 1778.883091 C2027.32990388 1749.05713466 2027.34215419 1719.23118267 2027.34619505 1689.40522042 C2027.34677121 1685.17516646 2027.34742248 1680.94511251 2027.34811956 1676.71505857 C2027.34832183 1675.46647528 2027.34832183 1675.46647528 2027.34852818 1674.1926681 C2027.35087516 1660.89005783 2027.36010619 1647.58746118 2027.37202914 1634.28485643 C2027.38391693 1620.85278775 2027.38827314 1607.42073232 2027.38536783 1593.98865858 C2027.3839973 1586.73463977 2027.38568193 1579.48065713 2027.39677602 1572.22664571 C2027.43450873 1546.50979833 2027.41583029 1520.81959535 2026.2535494 1495.12427831 C2026.21359094 1494.23594109 2026.17363249 1493.34760387 2026.13246317 1492.43234733 C2022.00163933 1403.58141312 2002.0454121 1313.04755225 1913.15836507 1183.1276505 C1912.25028007 1182.11510735 1911.34275335 1181.10206332 1910.43570882 1180.088588 C1905.92468921 1175.07210366 1901.40043355 1170.21633357 1896.21695882 1165.8776505 C1893.80800048 1163.82980735 1891.52649074 1161.66612481 1889.22086507 1159.5026505 C1881.92836842 1152.8639639 1874.08114667 1146.98812187 1866.15836507 1141.1276505 C1865.46968343 1140.61412023 1864.78100179 1140.10058995 1864.07145101 1139.57149816 C1853.40210888 1131.65479537 1842.2656872 1124.87551675 1830.62320882 1118.48556066 C1828.42535361 1117.27473749 1826.24361226 1116.03991294 1824.06461507 1114.79561925 C1770.96847609 1084.99588455 1706.42473066 1072.4666551 1646.15836507 1071.1276505 C1645.23265706 1071.10573644 1644.30694906 1071.08382237 1643.35318929 1071.06124425 C1582.13856562 1069.83182921 1519.02205733 1079.91015102 1464.15836507 1108.1276505 Z M451.15836507 1095.1276505 C451.15836507 1434.6976505 451.15836507 1774.2676505 451.15836507 2124.1276505 C564.01836507 2124.1276505 676.87836507 2124.1276505 793.15836507 2124.1276505 C793.15836507 1784.5576505 793.15836507 1444.9876505 793.15836507 1095.1276505 C680.29836507 1095.1276505 567.43836507 1095.1276505 451.15836507 1095.1276505 Z " fill="#FFFFFF" transform="translate(298.84163492918015,94.87234950065613)"/>
</svg>
