<?xml version="1.0" encoding="UTF-8"?>
<svg version="1.1" xmlns="http://www.w3.org/2000/svg" width="512" height="512">
<path d="M0 0 C4.71669988 2.79680744 8.42236924 6.13730374 12.25079346 9.99682617 C12.85070752 10.59362025 13.45062158 11.19041433 14.06871486 11.80529308 C16.06783309 13.79646522 18.05976325 15.79467193 20.05175781 17.79296875 C21.48738922 19.22588886 22.92344549 20.65838342 24.3598938 22.09048462 C28.2526676 25.97415041 32.13910016 29.8641043 36.02414799 33.75549698 C40.09080197 37.82721718 44.16233642 41.8940524 48.23309326 45.96166992 C55.06589939 52.79083906 61.89448104 59.62421104 68.72070312 66.45996094 C76.61614006 74.3662906 84.51876797 82.26537771 92.42515302 90.16075802 C99.2127967 96.93933164 105.99654245 103.72178767 112.77703357 110.50751591 C116.82706337 114.56066582 120.87843731 118.61244734 124.93332672 122.66073608 C128.74305745 126.46469779 132.54787812 130.27350288 136.34893417 134.08613205 C137.74605318 135.48589963 139.14488448 136.88396051 140.54552841 138.28020096 C142.45405516 140.18327897 144.35634033 142.09238362 146.25714111 144.00317383 C146.81530116 144.55687243 147.37346121 145.11057104 147.9485352 145.68104839 C152.58632532 150.36637316 154.29123511 153.29107941 154.375 159.875 C154.40335938 160.88304687 154.43171875 161.89109375 154.4609375 162.9296875 C153.49247117 169.38065816 148.46047055 173.82941154 144.00317383 178.25079346 C143.40637975 178.85070752 142.80958567 179.45062158 142.19470692 180.06871486 C140.20353478 182.06783309 138.20532807 184.05976325 136.20703125 186.05175781 C134.77411114 187.48738922 133.34161658 188.92344549 131.90951538 190.3598938 C128.02584959 194.2526676 124.1358957 198.13910016 120.24450302 202.02414799 C116.17278282 206.09080197 112.1059476 210.16233642 108.03833008 214.23309326 C101.20916094 221.06589939 94.37578896 227.89448104 87.54003906 234.72070312 C79.6337094 242.61614006 71.73462229 250.51876797 63.83924198 258.42515302 C57.06066836 265.2127967 50.27821233 271.99654245 43.49248409 278.77703357 C39.43933418 282.82706337 35.38755266 286.87843731 31.33926392 290.93332672 C27.53530221 294.74305745 23.72649712 298.54787812 19.91386795 302.34893417 C18.51410037 303.74605318 17.11603949 305.14488448 15.71979904 306.54552841 C13.81672103 308.45405516 11.90761638 310.35634033 9.99682617 312.25714111 C9.44312757 312.81530116 8.88942896 313.37346121 8.31895161 313.9485352 C3.63362684 318.58632532 0.70892059 320.29123511 -5.875 320.375 C-11.08266907 320.27363418 -14.10580633 319.69948398 -18 316 C-22.41415841 311.35351746 -22.46758261 307.11206934 -22.53125 301 C-21.44146938 294.84594472 -16.85573124 290.56480932 -12.54571533 286.3052063 C-12.00735227 285.76513439 -11.46898921 285.22506248 -10.91431212 284.66862476 C-9.12108737 282.87212314 -7.32084105 281.08283276 -5.52050781 279.29345703 C-4.22886409 278.00237781 -2.93766132 276.71085733 -1.64686584 275.41893005 C1.85038804 271.92110318 5.35376683 268.42947003 8.85828686 264.93892527 C12.52273294 261.28699552 16.18150279 257.62938791 19.84088135 253.97238159 C26.76765008 247.05182496 33.69950055 240.13638169 40.63319612 233.2227658 C48.52826133 225.35006795 56.41763722 217.47167925 64.30654287 209.59280992 C80.53137742 193.38887125 96.76333538 177.19208407 113 161 C111.41422426 157.09819692 108.74687815 154.47766004 105.79968262 151.57263184 C105.26443954 151.03709104 104.72919646 150.50155025 104.1777339 149.94978094 C102.38296041 148.15639645 100.58114154 146.3702621 98.77929688 144.58398438 C97.4911794 143.29970516 96.20351648 142.01496988 94.91627502 140.72981262 C92.14336449 137.96322564 89.36737644 135.19977709 86.58900452 132.43867493 C82.19738864 128.07408 77.81338989 123.70188828 73.43054199 119.32849121 C64.12625096 110.04641077 54.81355425 100.77278438 45.5 91.5 C35.44585441 81.4898662 25.39314038 71.47832077 15.35015345 61.45698977 C10.99141945 57.10823242 6.62785155 52.76440164 2.26055145 48.42424774 C-0.45335359 45.72524269 -3.16312556 43.0221174 -5.8717823 40.3178463 C-7.13019818 39.06318017 -8.39034459 37.81024703 -9.65232658 36.55916786 C-11.37274878 34.85314495 -13.08692388 33.14107959 -14.79968262 31.42736816 C-15.30220692 30.93203378 -15.80473123 30.4366994 -16.32248354 29.92635489 C-20.78494075 25.43717875 -22.29460487 22.44405715 -22.375 16.125 C-22.27363418 10.91733093 -21.69948398 7.89419367 -18 4 C-12.87322962 -0.87043186 -6.74482111 -1.1943954 0 0 Z " fill="#9A9A9A" transform="translate(198,96)"/>
</svg>
