<svg xmlns="http://www.w3.org/2000/svg" xmlns:xlink="http://www.w3.org/1999/xlink" width="2000" zoomAndPan="magnify" viewBox="0 0 1500 599.999999" height="800" preserveAspectRatio="xMidYMid meet" version="1.0"><defs><g/></defs><g fill="#ffffff" fill-opacity="1"><g transform="translate(323.522857, 395.625003)"><g><path d="M 126.90625 0 L 101.796875 -51.03125 L 72.09375 -51.03125 L 72.09375 0 L 15.9375 0 L 15.9375 -189.265625 L 104.21875 -189.265625 C 129.601562 -189.265625 149.269531 -183.414062 163.21875 -171.71875 C 177.164062 -160.019531 184.140625 -143.460938 184.140625 -122.046875 C 184.140625 -108.003906 181.394531 -95.894531 175.90625 -85.71875 C 170.414062 -75.550781 162.539062 -67.585938 152.28125 -61.828125 L 190.625 0 Z M 72.09375 -94.234375 L 104.21875 -94.234375 C 112.675781 -94.234375 119.203125 -96.484375 123.796875 -100.984375 C 128.390625 -105.484375 130.6875 -111.960938 130.6875 -120.421875 C 130.6875 -128.703125 128.390625 -135.046875 123.796875 -139.453125 C 119.203125 -143.859375 112.675781 -146.0625 104.21875 -146.0625 L 72.09375 -146.0625 Z M 72.09375 -94.234375 "/></g></g></g><g fill="#ffffff" fill-opacity="1"><g transform="translate(538.172488, 395.625003)"><g><path d="M 170.640625 -146.0625 L 72.09375 -146.0625 L 72.09375 -116.375 L 161.453125 -116.375 L 161.453125 -73.171875 L 72.09375 -73.171875 L 72.09375 -43.203125 L 173.34375 -43.203125 L 173.34375 0 L 15.9375 0 L 15.9375 -189.265625 L 170.640625 -189.265625 Z M 170.640625 -146.0625 "/></g></g></g><g fill="#ffffff" fill-opacity="1"><g transform="translate(741.482217, 395.625003)"><g><path d="M 237.328125 0 L 179.546875 0 L 149.3125 -120.6875 L 118.53125 0 L 60.75 0 L -0.8125 -189.265625 L 59.125 -189.265625 L 91.53125 -58.3125 L 123.125 -189 L 177.9375 -189.265625 L 210.328125 -58.3125 L 241.921875 -189.265625 L 299.4375 -189.265625 Z M 237.328125 0 "/></g></g></g><g fill="#3b82f6" fill-opacity="1"><g transform="translate(1121.660689, 395.625003)"><g><path d="M 34.296875 -48.59375 C 41.847656 -48.59375 48.007812 -46.253906 52.78125 -41.578125 C 57.550781 -36.898438 59.9375 -30.867188 59.9375 -23.484375 C 59.9375 -15.929688 57.550781 -9.769531 52.78125 -5 C 48.007812 -0.226562 41.847656 2.15625 34.296875 2.15625 C 26.910156 2.15625 20.832031 -0.226562 16.0625 -5 C 11.289062 -9.769531 8.90625 -15.929688 8.90625 -23.484375 C 8.90625 -30.867188 11.289062 -36.898438 16.0625 -41.578125 C 20.832031 -46.253906 26.910156 -48.59375 34.296875 -48.59375 Z M 34.296875 -48.59375 "/></g></g></g></svg>