<svg xmlns="http://www.w3.org/2000/svg" xmlns:xlink="http://www.w3.org/1999/xlink" width="1000" zoomAndPan="magnify" viewBox="0 0 750 749.999995" height="1000" preserveAspectRatio="xMidYMid meet" version="1.0"><defs><g/></defs><g fill="#ffffff" fill-opacity="1"><g transform="translate(208.533084, 470.624997)"><g><path d="M 126.90625 0 L 101.796875 -51.03125 L 72.09375 -51.03125 L 72.09375 0 L 15.9375 0 L 15.9375 -189.265625 L 104.21875 -189.265625 C 129.601562 -189.265625 149.269531 -183.414062 163.21875 -171.71875 C 177.164062 -160.019531 184.140625 -143.460938 184.140625 -122.046875 C 184.140625 -108.003906 181.394531 -95.894531 175.90625 -85.71875 C 170.414062 -75.550781 162.539062 -67.585938 152.28125 -61.828125 L 190.625 0 Z M 72.09375 -94.234375 L 104.21875 -94.234375 C 112.675781 -94.234375 119.203125 -96.484375 123.796875 -100.984375 C 128.390625 -105.484375 130.6875 -111.960938 130.6875 -120.421875 C 130.6875 -128.703125 128.390625 -135.046875 123.796875 -139.453125 C 119.203125 -143.859375 112.675781 -146.0625 104.21875 -146.0625 L 72.09375 -146.0625 Z M 72.09375 -94.234375 "/></g></g></g><g fill="#3b82f6" fill-opacity="1"><g transform="translate(437.224493, 470.624997)"><g><path d="M 34.296875 -48.59375 C 41.847656 -48.59375 48.007812 -46.253906 52.78125 -41.578125 C 57.550781 -36.898438 59.9375 -30.867188 59.9375 -23.484375 C 59.9375 -15.929688 57.550781 -9.769531 52.78125 -5 C 48.007812 -0.226562 41.847656 2.15625 34.296875 2.15625 C 26.910156 2.15625 20.832031 -0.226562 16.0625 -5 C 11.289062 -9.769531 8.90625 -15.929688 8.90625 -23.484375 C 8.90625 -30.867188 11.289062 -36.898438 16.0625 -41.578125 C 20.832031 -46.253906 26.910156 -48.59375 34.296875 -48.59375 Z M 34.296875 -48.59375 "/></g></g></g></svg>